<svg width="200" height="59" viewBox="0 0 200 59" fill="none" xmlns="http://www.w3.org/2000/svg">
<path d="M140.742 42.2552C140.79 42.8796 140.933 43.4097 141.172 43.8464C140.932 43.4097 140.788 42.8796 140.74 42.2552C140.717 41.9385 140.719 41.6199 140.749 41.3013C140.719 41.6199 140.717 41.9385 140.743 42.2552H140.742Z" fill="#680070"/>
<path d="M173.983 38.4791C174.076 38.3213 174.168 38.1665 174.267 38.0186C174.17 38.1665 174.076 38.3203 173.985 38.4791C173.883 38.6539 173.79 38.8315 173.704 39.0072C173.788 38.8325 173.881 38.6548 173.983 38.4791Z" fill="#680070"/>
<path d="M149.299 32.6174L148.94 32.5459V34.8846C147.91 33.614 146.627 32.8586 145.093 32.6174H143.331C141.725 32.8814 140.383 33.7083 139.304 35.1C138.225 36.4907 137.687 38.1206 137.687 39.9908C137.687 42.0277 138.32 43.7728 139.59 45.223C140.861 46.6733 142.409 47.3969 144.23 47.3969C146.052 47.3969 147.671 46.6177 148.941 45.0602C148.941 45.1555 148.952 45.3005 148.977 45.491C149 51.7497 148.39 55.1515 147.143 55.7044C146.376 56.0151 145.513 55.7997 144.555 55.0562C143.595 54.3137 142.396 52.7433 140.958 50.3451L138.766 53.87C139.363 55.0691 140.076 56.0141 140.904 56.711C141.731 57.4058 142.575 57.8297 143.439 57.9875C144.303 58.1414 145.117 58.1602 145.885 58.0401C146.651 57.92 147.394 57.6917 148.113 57.3562C148.641 57.1179 149.12 56.835 149.553 56.5114C149.983 56.1888 150.349 55.8275 150.649 55.4324C150.948 55.0373 151.212 54.6601 151.44 54.2988C151.668 53.9405 151.847 53.4968 151.978 52.9687C152.111 52.4406 152.212 51.9979 152.283 51.6385C152.355 51.2772 152.41 50.7858 152.446 50.1634C152.482 49.5411 152.506 49.0616 152.518 48.7261C152.529 48.3906 152.535 47.8863 152.535 47.2153V33.2636L149.299 32.6154V32.6174ZM148.948 39.0696C148.948 39.0825 148.948 39.0924 148.946 39.1053C148.946 39.1113 148.946 39.1202 148.944 39.1262C148.942 39.1639 148.94 39.1996 148.935 39.2383V39.2552C148.933 39.2761 148.931 39.2999 148.929 39.3207C148.929 39.3247 148.927 39.3297 148.927 39.3336C148.921 39.4031 148.914 39.4726 148.904 39.5431C148.9 39.5878 148.892 39.6314 148.886 39.6741C148.88 39.7188 148.871 39.7605 148.865 39.8051C148.839 39.9441 148.81 40.0841 148.774 40.223C148.76 40.2925 148.741 40.362 148.72 40.4325C148.641 40.7114 148.542 40.9914 148.422 41.2723C148.362 41.4113 148.3 41.5512 148.23 41.6922C148.161 41.8311 148.087 41.9731 148.007 42.1121C147.946 42.2133 147.883 42.3106 147.818 42.4059C147.814 42.4148 147.807 42.4208 147.803 42.4287C147.752 42.5051 147.699 42.5766 147.647 42.6481C147.638 42.659 147.632 42.6689 147.624 42.6799C147.62 42.6888 147.613 42.6967 147.607 42.7057C147.54 42.796 147.47 42.8853 147.401 42.9737C147.329 43.062 147.257 43.1514 147.181 43.2357C147.108 43.3221 147.029 43.4065 146.951 43.4869C146.873 43.5693 146.793 43.6477 146.713 43.7231C146.636 43.7966 146.561 43.8671 146.482 43.9346C146.471 43.9435 146.462 43.9534 146.451 43.9624C146.372 44.0318 146.293 44.0974 146.21 44.1629C145.516 44.7138 144.826 45.0513 144.144 45.1694C143.46 45.2895 142.806 45.1923 142.183 44.8825C141.752 44.6294 141.415 44.285 141.177 43.8482C140.938 43.4114 140.795 42.8814 140.746 42.257C140.74 42.1855 140.735 42.116 140.733 42.0436C140.722 41.7964 140.729 41.5492 140.752 41.3031C140.756 41.2604 140.76 41.2187 140.765 41.174C140.769 41.1313 140.776 41.0876 140.782 41.045C140.793 40.9606 140.807 40.8742 140.821 40.7879C140.861 40.5645 140.917 40.3382 140.984 40.1129C141.007 40.0364 141.031 39.963 141.056 39.8865C141.085 39.8002 141.115 39.7138 141.151 39.6265C141.187 39.5332 141.224 39.4389 141.265 39.3436C141.269 39.3376 141.271 39.3307 141.274 39.3227C141.312 39.2364 141.352 39.15 141.394 39.0607C141.396 39.0547 141.398 39.0478 141.403 39.0418C141.441 38.9614 141.483 38.879 141.525 38.7966C141.534 38.7817 141.542 38.7648 141.551 38.748C141.598 38.6596 141.648 38.5683 141.699 38.48C142.429 37.2094 143.364 36.3061 144.504 35.7661C144.626 35.7095 144.747 35.6559 144.865 35.6122C144.903 35.5953 144.944 35.5804 144.982 35.5675C145.041 35.5467 145.1 35.5278 145.159 35.508C145.229 35.4851 145.3 35.4653 145.371 35.4484C145.44 35.4295 145.51 35.4127 145.58 35.4018C145.65 35.3869 145.715 35.3759 145.783 35.368C145.85 35.3591 145.92 35.3531 145.985 35.3491C146.053 35.3452 146.118 35.3432 146.186 35.3432C146.296 35.3432 146.403 35.3491 146.508 35.362C146.523 35.364 146.536 35.364 146.551 35.368C146.557 35.368 146.562 35.368 146.568 35.37C146.612 35.374 146.658 35.3829 146.701 35.3908C146.757 35.4018 146.813 35.4137 146.868 35.4286C146.98 35.4583 147.087 35.4941 147.195 35.5387C147.302 35.5834 147.407 35.634 147.51 35.6926C147.725 35.8147 147.917 35.9626 148.084 36.1333C148.115 36.1671 148.147 36.2008 148.177 36.2346C148.194 36.2515 148.209 36.2703 148.224 36.2892C148.238 36.3041 148.249 36.319 148.259 36.3338C148.289 36.3676 148.316 36.4033 148.34 36.4391C148.367 36.4728 148.39 36.5086 148.411 36.5443C148.413 36.5483 148.417 36.5532 148.419 36.5572C148.425 36.5632 148.43 36.5721 148.432 36.578C148.462 36.6207 148.487 36.6644 148.512 36.7111C148.512 36.713 148.514 36.713 148.514 36.715C148.546 36.7676 148.574 36.8272 148.601 36.8838C148.629 36.9404 148.651 36.9999 148.677 37.0615C148.677 37.0634 148.679 37.0634 148.679 37.0654C148.692 37.1012 148.707 37.1369 148.717 37.1756C148.732 37.2114 148.745 37.2471 148.755 37.2828C148.757 37.2888 148.759 37.2957 148.761 37.3017C148.771 37.3354 148.781 37.3692 148.79 37.4049C148.801 37.4347 148.809 37.4665 148.816 37.4982C148.827 37.5359 148.835 37.5747 148.844 37.6144C148.848 37.6312 148.852 37.6481 148.857 37.667C148.87 37.7216 148.88 37.7791 148.889 37.8377C148.891 37.8466 148.891 37.8546 148.893 37.8635C148.905 37.935 148.915 38.0094 148.924 38.0849C148.935 38.1613 148.941 38.2387 148.947 38.3172C148.966 38.5663 148.97 38.8175 148.955 39.0686L148.948 39.0696Z" fill="#680070"/>
<path d="M164.149 38.0839C164.149 38.8026 163.981 39.5709 163.645 40.3859C163.309 41.2008 162.866 41.9314 162.315 42.5796C162.315 42.5796 162.305 42.5925 162.285 42.6154C162.28 42.6213 162.275 42.6263 162.27 42.6322C162.257 42.6491 162.24 42.668 162.221 42.6898C162.205 42.7067 162.19 42.7236 162.176 42.7394C162.159 42.7573 162.142 42.7782 162.123 42.798C162.104 42.8199 162.084 42.8417 162.061 42.8655C161.583 43.3837 161.074 43.8165 160.535 44.1619C160.511 44.1778 160.487 44.1917 160.464 44.2066C160.448 44.1957 160.432 44.1857 160.416 44.1738C159.699 44.5679 158.855 44.8012 158.021 44.4905C158.019 44.4905 158.018 44.4905 158.016 44.4885C157.991 44.4796 157.966 44.4696 157.942 44.4597C157.652 44.3356 157.381 44.153 157.13 43.9098C157.13 43.9098 157.127 43.9068 157.125 43.9048C156.617 43.3876 156.236 42.5806 156.053 41.4262C155.781 39.7168 155.944 37.2432 156.77 33.8126C156.989 32.8963 157.257 31.9126 157.576 30.8564H154.016C153.752 31.8878 153.579 33.0681 153.495 34.3982C153.411 35.7284 153.464 37.1677 153.656 38.7143C153.849 40.2598 154.195 41.6684 154.699 42.939C155.116 43.9902 155.732 44.8975 156.551 45.6608C157.73 46.8202 159.1 47.398 160.659 47.398C160.718 47.398 160.775 47.398 160.832 47.396C162.191 47.3602 163.295 46.9056 164.147 46.0321V47.398H167.707V30.8574H164.147V38.0859L164.149 38.0839Z" fill="#680070"/>
<path d="M160.734 36.1066L160.55 35.6729L160.665 36.1225C160.688 36.1166 160.712 36.1116 160.735 36.1066H160.734Z" fill="#680070"/>
<path d="M181.229 32.545V34.8836C180.198 33.613 178.916 32.8576 177.381 32.6164H175.619C174.015 32.8805 172.673 33.7073 171.594 35.099C170.515 36.4897 169.975 38.1197 169.975 39.9898C169.975 42.0267 170.61 43.7718 171.881 45.2221C173.152 46.6723 174.697 47.396 176.521 47.396C178.344 47.396 179.959 46.6168 181.23 45.0593C181.23 45.1546 181.243 45.2995 181.267 45.4901C181.29 51.7487 180.679 55.1506 179.431 55.7035C178.665 56.0142 177.801 55.7988 176.843 55.0553C175.885 54.3128 174.686 52.7424 173.247 50.3442L171.054 53.869C171.654 55.0682 172.367 56.0132 173.194 56.71C174.019 57.4049 174.866 57.8287 175.729 57.9866C176.593 58.1404 177.407 58.1593 178.173 58.0392C178.942 57.9191 179.684 57.6907 180.405 57.3552C180.93 57.117 181.411 56.8341 181.842 56.5105C182.275 56.1879 182.638 55.8266 182.94 55.4315C183.238 55.0364 183.504 54.6592 183.729 54.2979C183.958 53.9395 184.136 53.4958 184.269 52.9677C184.4 52.4396 184.504 51.9969 184.575 51.6376C184.646 51.2763 184.699 50.7849 184.738 50.1625C184.772 49.5401 184.797 49.0607 184.809 48.7251C184.82 48.3896 184.826 47.8854 184.826 47.2143V33.2626L181.23 32.543L181.229 32.545ZM180.294 42.1101C179.791 42.9251 179.192 43.609 178.495 44.1599C177.8 44.7109 177.112 45.0484 176.428 45.1665C175.744 45.2866 175.092 45.1893 174.47 44.8796C173.606 44.3753 173.126 43.5018 173.03 42.2541C173.014 42.0406 173.01 41.8302 173.018 41.6168C173.02 41.5681 173.022 41.5175 173.027 41.4689C173.028 41.4242 173.03 41.3845 173.035 41.3398V41.3378C173.035 41.3269 173.037 41.317 173.037 41.3061C173.039 41.2932 173.039 41.2783 173.041 41.2664C173.041 41.2624 173.041 41.2574 173.043 41.2535C173.047 41.2088 173.051 41.1651 173.058 41.1205C173.066 41.049 173.077 40.9765 173.09 40.905C173.09 40.8921 173.092 40.8773 173.096 40.8653C173.102 40.8207 173.111 40.772 173.121 40.7264V40.7224C173.127 40.6777 173.138 40.6341 173.149 40.5874C173.151 40.5785 173.153 40.5705 173.155 40.5616C173.157 40.5556 173.157 40.5467 173.159 40.5407C173.169 40.4842 173.184 40.4266 173.198 40.368C173.202 40.3512 173.206 40.3343 173.211 40.3174C173.226 40.2648 173.239 40.2122 173.256 40.1596C173.275 40.0901 173.296 40.0206 173.319 39.9501C173.366 39.8111 173.417 39.6692 173.471 39.5302C173.509 39.4329 173.552 39.3357 173.595 39.2394C173.629 39.161 173.665 39.0855 173.703 39.0071C173.789 38.8324 173.882 38.6547 173.983 38.479C174.074 38.3212 174.169 38.1663 174.266 38.0184C174.315 37.945 174.366 37.8725 174.416 37.803C174.493 37.6958 174.568 37.5936 174.648 37.4923C174.688 37.4417 174.729 37.3931 174.769 37.3444C174.808 37.2958 174.851 37.2491 174.891 37.2035C174.945 37.1399 175.003 37.0794 175.059 37.0198C175.116 36.9603 175.174 36.9037 175.232 36.8471C175.699 36.3954 176.218 36.0341 176.786 35.7641C177.009 35.6589 177.226 35.5715 177.44 35.507C177.584 35.4624 177.723 35.4266 177.86 35.4018C177.927 35.3869 177.995 35.376 178.062 35.368H178.064C178.132 35.3591 178.199 35.3532 178.265 35.3492C178.332 35.3452 178.398 35.3432 178.463 35.3432C178.523 35.3432 178.581 35.3452 178.638 35.3492C178.689 35.3512 178.737 35.3551 178.788 35.3621C178.805 35.3641 178.824 35.3661 178.84 35.368C178.887 35.374 178.934 35.3829 178.979 35.3909C179.026 35.3998 179.073 35.4097 179.118 35.4226C179.144 35.4286 179.167 35.4356 179.192 35.4415C179.192 35.4415 179.193 35.4422 179.196 35.4435C179.236 35.4544 179.274 35.4663 179.312 35.4792C179.352 35.4921 179.392 35.509 179.432 35.5239C179.468 35.5388 179.504 35.5517 179.537 35.5686C179.548 35.5725 179.558 35.5775 179.569 35.5835C179.603 35.5983 179.637 35.6152 179.67 35.6321C179.708 35.651 179.749 35.6718 179.786 35.6936C180.65 36.185 181.129 37.0595 181.224 38.3192C181.321 39.5769 181.008 40.8415 180.289 42.1121L180.294 42.1101Z" fill="#680070"/>
<path d="M196.439 30.8555V38.0839C196.439 38.8026 196.272 39.5709 195.936 40.3859C195.6 41.2009 195.156 41.9315 194.605 42.5797C194.054 43.2269 193.461 43.754 192.825 44.1619C192.805 44.1748 192.787 44.1877 192.766 44.1997C192.754 44.1917 192.741 44.1828 192.729 44.1738C192.012 44.5679 191.168 44.8012 190.334 44.4905C190.332 44.4905 190.331 44.4905 190.329 44.4885C190.304 44.4796 190.279 44.4697 190.255 44.4597C189.965 44.3356 189.694 44.153 189.443 43.9098C189.443 43.9098 189.44 43.9068 189.438 43.9048C188.93 43.3877 188.549 42.5806 188.366 41.4262C188.354 41.3508 188.342 41.2733 188.333 41.1949C188.11 39.4965 188.294 37.0913 189.083 33.8126C189.085 33.8046 189.087 33.7967 189.089 33.7887C189.307 32.8805 189.573 31.9037 189.89 30.8565H186.33C186.066 31.8878 185.893 33.0681 185.809 34.3982C185.725 35.7284 185.778 37.1677 185.97 38.7143C186.13 39.9938 186.395 41.18 186.767 42.2709C186.928 42.8109 187.15 43.3311 187.433 43.8294C187.433 43.8314 187.435 43.8334 187.436 43.8344C187.69 44.2959 187.992 44.7248 188.341 45.1198C188.349 45.1298 188.358 45.1407 188.367 45.1506C189.65 46.6495 191.177 47.398 192.951 47.398C193.012 47.398 193.07 47.398 193.129 47.395C193.135 47.395 193.141 47.395 193.147 47.395C194.494 47.3593 195.591 46.9126 196.439 46.0539V47.397H200V30.8565H196.439V30.8555Z" fill="#680070"/>
<path d="M157.131 43.9082C157.382 44.1504 157.653 44.3341 157.943 44.4581C157.649 44.337 157.376 44.1554 157.131 43.9082Z" fill="#680070"/>
<path d="M162.285 42.6147C162.255 42.6515 162.2 42.715 162.125 42.7974C162.178 42.7378 162.232 42.6773 162.285 42.6147Z" fill="#680070"/>
<path d="M134.571 18.8318C133.937 18.7187 133.926 19.3957 133.926 19.3957C133.926 19.3957 133.965 23.4933 133.926 23.8695C133.888 24.2448 134.115 24.6974 134.571 24.5842C135.027 24.4711 135.091 24.0562 135.091 24.0562L135.054 21.5755H136.219V30.148L136.187 30.158L132.93 31.1715L132.813 29.5157L132.713 21.8336L132.698 20.7109L132.684 19.6954C132.684 19.6954 132.045 16.9895 134.527 16.9131C137.008 16.8386 136.481 19.6954 136.481 19.6954H135.053C134.978 19.0185 135.203 18.944 134.569 18.8308L134.571 18.8318Z" fill="#680070"/>
<path d="M136.145 31.5562L136.11 32.113L136.056 32.9985L136.035 33.335L136.001 33.8958L135.961 34.552L134.51 58.1185L133.21 35.0672L133.193 34.7465L133.181 34.5331L133.111 33.3131L133.091 32.9588L133.062 32.4207L136.145 31.5562Z" fill="#680070"/>
<path d="M133.091 32.959L136.11 32.1133L136.056 32.9987L136.035 33.3352L136.001 33.8961L134.133 34.6803L133.21 35.0674L133.181 35.0803L133.081 33.3164L133.079 33.2925L133.062 32.968L133.091 32.959Z" fill="#680070"/>
<path d="M136.145 32.1025L136.132 32.308C136.134 32.2435 136.136 32.176 136.138 32.1045L136.145 32.1025Z" fill="#680070"/>
<path d="M136.145 31.5562L136.11 32.113L136.056 32.9985L136.035 33.335L136.001 33.8958L135.961 34.552L134.133 34.68L133.193 34.7465L133.181 34.5331L133.111 33.3131L133.091 32.9588L133.062 32.4207L136.145 31.5562Z" fill="#680070"/>
<path d="M136.22 28.5636C136.22 28.7681 136.205 29.4173 136.188 30.1578C136.172 30.818 136.153 31.5495 136.139 32.1044L136.111 32.1124L136.057 32.9978L133.112 33.3125L133.082 33.3165L133.08 33.2926L132.932 31.1713L132.814 29.5156C132.814 29.5156 136.22 28.0058 136.22 28.5636Z" fill="#680070"/>
<path d="M135.048 20.2334V20.8905C135.048 20.8905 137.7 20.9153 138.498 23.4029C139.296 25.8905 136.968 27.58 136.968 27.58C136.968 27.58 140.252 25.5351 138.349 22.2028C138.349 22.2028 137.208 20.6255 135.049 20.2334H135.048Z" fill="#680070"/>
<path d="M136.254 29.9375L135.751 30.3594C135.751 30.3594 137.434 32.4092 136.04 34.6169C134.646 36.8255 131.855 36.1257 131.855 36.1257C131.855 36.1257 135.533 37.3308 136.864 33.7324C136.864 33.7324 137.341 31.8444 136.254 29.9375Z" fill="#680070"/>
<path d="M132.199 20.233C132.199 20.233 127.503 22.0903 132.814 25.2827L133.009 24.9551V24.7149C133.009 24.7149 130.8 23.621 130.713 22.3752C130.626 21.1284 132.698 20.5606 132.698 20.5606L132.815 20.0137L132.2 20.234L132.199 20.233Z" fill="#680070"/>
<path d="M197.6 28.1238C197.591 28.1089 197.574 28.1149 197.551 28.1387C197.519 28.1536 197.511 28.1556 197.523 28.1427C197.536 28.1298 197.527 28.1238 197.5 28.1238C197.441 28.1238 197.461 28.1049 197.555 28.0692C197.591 28.0652 197.6 28.0523 197.585 28.0315C197.568 28.0106 197.568 27.9957 197.581 27.9828C197.602 27.9888 197.6 27.9809 197.572 27.957C197.546 27.9342 197.544 27.9253 197.566 27.9312C197.589 27.9372 197.589 27.9223 197.57 27.8846C197.534 27.8359 197.517 27.8191 197.521 27.8359C197.527 27.8528 197.515 27.8617 197.486 27.8617C197.465 27.8528 197.456 27.8468 197.467 27.8359C197.476 27.827 197.469 27.8191 197.446 27.8131C197.408 27.7942 197.406 27.7813 197.442 27.7774C197.476 27.7714 197.442 27.7605 197.341 27.7476C197.271 27.7436 197.235 27.7436 197.228 27.7496C197.226 27.7645 197.214 27.7664 197.189 27.7555C197.163 27.7426 197.14 27.7277 197.115 27.7089C197.089 27.69 197.067 27.6771 197.046 27.6711C197.023 27.6652 197.012 27.6731 197.016 27.6989C197.012 27.7605 196.982 27.7754 196.928 27.7436C196.911 27.7307 196.896 27.7287 196.881 27.7347C196.866 27.7436 196.866 27.7535 196.883 27.7664C196.904 27.7724 196.911 27.7813 196.898 27.7942C196.885 27.8071 196.875 27.8032 196.864 27.7833C196.864 27.7684 196.836 27.7555 196.78 27.7476C196.725 27.7386 196.708 27.7307 196.731 27.7218C196.744 27.7089 196.737 27.7029 196.714 27.7049C196.691 27.7049 196.668 27.7069 196.645 27.7069C196.624 27.7089 196.605 27.7069 196.594 27.7049C196.583 27.7009 196.592 27.692 196.622 27.6771C196.66 27.6563 196.66 27.6414 196.626 27.6304C196.583 27.6027 196.544 27.5858 196.51 27.5838C196.474 27.5818 196.369 27.5897 196.189 27.6066C196.073 27.6215 195.989 27.6275 195.936 27.6275C195.883 27.6275 195.839 27.6553 195.801 27.7059C195.816 27.7506 195.803 27.7734 195.761 27.7774C195.722 27.7793 195.696 27.7883 195.683 27.8002C195.704 27.8061 195.706 27.8191 195.683 27.8429C195.662 27.8637 195.638 27.8707 195.617 27.8637C195.604 27.8598 195.595 27.8637 195.582 27.8766C195.586 27.9024 195.571 27.9084 195.542 27.8935C195.51 27.8806 195.495 27.8915 195.491 27.9213C195.445 27.9382 195.396 27.9739 195.35 28.0265C195.304 28.0791 195.255 28.1337 195.204 28.1893C195.154 28.2459 195.111 28.3015 195.08 28.3541C195.047 28.4067 195.032 28.4444 195.036 28.4702C195.002 28.5318 194.962 28.5943 194.918 28.6598C194.873 28.7234 194.816 28.7909 194.747 28.8564C194.685 28.9179 194.658 28.9497 194.67 28.9517C194.681 28.9556 194.685 28.9725 194.683 29.0023C194.674 29.0231 194.666 29.0251 194.657 29.0063C194.659 28.9765 194.643 28.9785 194.605 29.0152C194.579 29.0549 194.571 29.0847 194.582 29.1016C194.591 29.1204 194.565 29.1522 194.504 29.1988C194.455 29.2455 194.44 29.2663 194.466 29.2584C194.502 29.2375 194.502 29.2455 194.468 29.2882C194.432 29.3279 194.387 29.3815 194.331 29.442C194.274 29.5036 194.219 29.5641 194.166 29.6237C194.112 29.6832 194.084 29.719 194.084 29.7339C194.056 29.7885 193.999 29.854 193.913 29.9324C193.827 30.0088 193.755 30.0734 193.7 30.1289C193.583 30.2828 193.51 30.3553 193.476 30.3463C193.47 30.3354 193.465 30.3334 193.463 30.3354C193.459 30.3394 193.461 30.3444 193.465 30.3543C193.486 30.3751 193.488 30.4029 193.467 30.4367C193.448 30.4704 193.423 30.4873 193.396 30.4873C193.366 30.4853 193.336 30.5081 193.303 30.5548C193.294 30.5905 193.29 30.6163 193.292 30.6263C193.294 30.6392 193.283 30.658 193.258 30.6809C193.228 30.6957 193.222 30.7067 193.239 30.7106C193.256 30.7166 193.26 30.7295 193.254 30.7503C193.258 30.7593 193.256 30.7652 193.248 30.7672C193.239 30.7672 193.233 30.7633 193.227 30.7543C193.204 30.7484 193.191 30.7503 193.182 30.7652C193.176 30.7781 193.171 30.797 193.17 30.8198C193.168 30.8427 193.168 30.8665 193.166 30.8893C193.164 30.9121 193.16 30.927 193.153 30.932C193.125 30.9866 193.106 31.0313 193.096 31.063C193.083 31.0948 193.077 31.1196 193.073 31.1395C193.069 31.1583 193.064 31.1544 193.06 31.1285C193.049 31.1097 193.039 31.1077 193.027 31.1196C193.025 31.1345 193.029 31.1702 193.036 31.2268C193.044 31.2834 193.046 31.3201 193.044 31.337C193.042 31.3648 193.038 31.3797 193.034 31.3797C193.028 31.3777 193.023 31.3708 193.021 31.3588C193.019 31.3469 193.017 31.336 193.01 31.3271C193.006 31.3162 192.995 31.3271 192.982 31.3549C192.986 31.3777 192.971 31.4035 192.942 31.4244C192.912 31.4472 192.919 31.4641 192.963 31.479C192.997 31.4879 192.997 31.4958 192.961 31.4998C192.916 31.5018 192.9 31.5296 192.912 31.5802C192.925 31.6308 192.955 31.6566 193.001 31.6537C193.04 31.6725 193.077 31.6725 193.108 31.6556C193.142 31.6368 193.138 31.6348 193.095 31.6447C193.078 31.6487 193.059 31.6467 193.036 31.6408C193.048 31.6278 193.08 31.6239 193.129 31.6259C193.175 31.6278 193.185 31.6368 193.157 31.6517L193.138 31.6705L193.155 31.6745C193.177 31.6805 193.182 31.6894 193.17 31.7023C193.151 31.7212 193.175 31.7192 193.243 31.6963C193.31 31.6735 193.35 31.6685 193.361 31.6874C193.399 31.7063 193.44 31.7043 193.481 31.6765C193.524 31.6487 193.547 31.6556 193.549 31.6953L193.568 31.6785C193.618 31.6298 193.658 31.611 193.692 31.6189C193.703 31.6229 193.721 31.613 193.746 31.5891L193.793 31.5425C193.795 31.5276 193.797 31.5167 193.804 31.5107C193.823 31.4938 193.836 31.4879 193.84 31.4978C193.856 31.5107 193.85 31.5187 193.825 31.5236C193.799 31.5286 193.797 31.5326 193.819 31.5385C193.842 31.5445 193.869 31.5385 193.899 31.5157C193.929 31.4928 193.95 31.4899 193.961 31.5097C193.978 31.5226 193.981 31.5246 193.978 31.5157C193.961 31.5028 193.98 31.473 194.037 31.4273C194.092 31.3787 194.109 31.3539 194.086 31.3469C194.063 31.341 194.058 31.3301 194.071 31.3191C194.084 31.3062 194.094 31.3062 194.105 31.3171C194.116 31.3281 194.125 31.3231 194.132 31.3003L194.16 31.2745C194.171 31.2913 194.188 31.2953 194.209 31.2804C194.23 31.2675 194.226 31.2616 194.196 31.2596C194.164 31.2338 194.175 31.2149 194.228 31.198C194.28 31.1831 194.31 31.1643 194.318 31.1434C194.314 31.1176 194.329 31.1117 194.363 31.1206C194.415 31.0978 194.456 31.066 194.481 31.0253C194.509 30.9876 194.565 30.937 194.658 30.8774C194.743 30.8079 194.799 30.7613 194.829 30.7335C194.857 30.7057 194.872 30.6848 194.872 30.6699C194.87 30.6302 194.881 30.6193 194.902 30.6421C194.917 30.6699 194.925 30.668 194.927 30.6382C194.933 30.6173 194.95 30.6044 194.978 30.6005C195.004 30.5965 195.035 30.5746 195.073 30.5389C195.105 30.5091 195.13 30.4863 195.152 30.4734C195.173 30.4605 195.188 30.4506 195.195 30.4436C195.198 30.4545 195.213 30.4456 195.239 30.4228L195.417 30.25C195.443 30.2272 195.457 30.2183 195.462 30.2292C195.472 30.2481 195.484 30.252 195.499 30.2461C195.514 30.2371 195.531 30.2252 195.55 30.2084C195.567 30.1895 195.586 30.1706 195.601 30.1468C195.617 30.124 195.634 30.1111 195.651 30.1091C195.681 30.0942 195.723 30.0644 195.775 30.0207C195.826 29.9781 195.874 29.9344 195.919 29.8917L196.035 29.7795C196.069 29.7458 196.078 29.7309 196.061 29.7329C196.048 29.7309 196.055 29.7239 196.08 29.716C196.086 29.71 196.114 29.6902 196.162 29.6564C196.211 29.6247 196.26 29.5889 196.312 29.5532C196.363 29.5175 196.408 29.4837 196.441 29.45C196.475 29.4162 196.484 29.3954 196.469 29.3825C196.433 29.3864 196.439 29.3805 196.488 29.3636C196.604 29.2643 196.686 29.1988 196.735 29.1651C196.784 29.1333 196.828 29.0976 196.868 29.0579C196.911 29.0182 196.963 28.9626 197.033 28.8891C197.102 28.8157 197.211 28.6926 197.356 28.5238C197.417 28.4623 197.442 28.4057 197.434 28.3531C197.423 28.2985 197.451 28.2628 197.514 28.2409C197.527 28.2449 197.54 28.2389 197.554 28.2241C197.571 28.2072 197.584 28.1903 197.599 28.1714C197.612 28.1526 197.614 28.1357 197.608 28.1208L197.6 28.1238ZM193.299 31.5772C193.299 31.5941 193.276 31.5921 193.233 31.5772C193.193 31.5603 193.182 31.5623 193.203 31.5862C193.224 31.607 193.22 31.6179 193.192 31.6179C193.163 31.6179 193.146 31.612 193.142 31.603C193.11 31.5633 193.133 31.5395 193.211 31.5355C193.29 31.5316 193.316 31.5445 193.298 31.5782L193.299 31.5772ZM193.355 31.6725C193.312 31.6556 193.308 31.6328 193.34 31.603C193.376 31.5673 193.387 31.5673 193.37 31.605C193.353 31.6427 193.357 31.6616 193.387 31.6616C193.408 31.6844 193.398 31.6874 193.355 31.6725ZM193.391 30.5121C193.397 30.5062 193.41 30.5032 193.429 30.5062C193.449 30.5062 193.454 30.5151 193.441 30.527C193.423 30.529 193.408 30.529 193.397 30.525C193.386 30.523 193.384 30.5161 193.391 30.5121ZM193.452 31.601C193.44 31.612 193.427 31.6199 193.415 31.6239C193.404 31.6278 193.402 31.6278 193.406 31.6219C193.397 31.603 193.415 31.5881 193.462 31.5792C193.509 31.5683 193.505 31.5752 193.451 31.6001L193.452 31.601ZM195.139 28.3928C195.133 28.4266 195.13 28.4494 195.128 28.4663C195.113 28.5089 195.107 28.5129 195.107 28.4772C195.105 28.4414 195.111 28.4176 195.124 28.4057C195.139 28.363 195.145 28.3591 195.139 28.3928ZM195.184 28.3293C195.148 28.3332 195.141 28.3253 195.163 28.3064C195.186 28.2836 195.198 28.2786 195.202 28.2876C195.208 28.2965 195.2 28.3104 195.184 28.3303V28.3293ZM195.323 28.2995C195.31 28.3104 195.295 28.3144 195.278 28.3104C195.261 28.3045 195.259 28.2955 195.272 28.2846C195.285 28.2717 195.3 28.2677 195.317 28.2737C195.333 28.2777 195.335 28.2866 195.323 28.2995ZM195.956 29.7914C195.937 29.8083 195.926 29.8212 195.926 29.8292C195.926 29.8351 195.928 29.8421 195.935 29.8421C195.939 29.8441 195.946 29.848 195.948 29.853C195.948 29.8589 195.931 29.8719 195.897 29.8907C195.866 29.9056 195.858 29.8867 195.868 29.8361C195.901 29.7577 195.935 29.7259 195.969 29.7349C195.992 29.7438 195.988 29.7607 195.956 29.7914ZM196.252 29.5463L196.214 29.582C196.18 29.588 196.18 29.58 196.216 29.5612C196.252 29.5403 196.265 29.5353 196.252 29.5463ZM196.441 29.4152C196.422 29.441 196.404 29.4549 196.387 29.4579C196.33 29.4559 196.332 29.441 196.391 29.4113C196.443 29.3884 196.46 29.3884 196.441 29.4152ZM196.792 29.0231C196.803 29.042 196.783 29.0589 196.737 29.0777C196.724 29.0887 196.718 29.0906 196.722 29.0797C196.726 29.0688 196.735 29.0569 196.748 29.046C196.761 29.0331 196.774 29.0231 196.788 29.0162C196.803 29.0073 196.805 29.0102 196.792 29.0221V29.0231ZM197.408 28.2975C197.402 28.3184 197.395 28.3184 197.387 28.2975C197.381 28.2767 197.389 28.2677 197.41 28.2747C197.423 28.2786 197.421 28.2856 197.408 28.2975ZM197.476 28.2112C197.446 28.2429 197.427 28.2469 197.419 28.2241C197.413 28.2032 197.425 28.1903 197.462 28.1843C197.521 28.1546 197.527 28.1635 197.477 28.2121L197.476 28.2112Z" fill="#680070"/>
<path d="M164.166 28.0584C164.16 28.0435 164.143 28.0474 164.118 28.0733C164.088 28.0881 164.08 28.0901 164.092 28.0772C164.105 28.0643 164.096 28.0584 164.067 28.0584C164.01 28.0564 164.029 28.0395 164.123 28.0038C164.157 27.9998 164.168 27.9849 164.151 27.9661C164.136 27.9452 164.134 27.9303 164.147 27.9174C164.17 27.9234 164.168 27.9154 164.141 27.8916C164.114 27.8688 164.112 27.8598 164.135 27.8658C164.156 27.8717 164.158 27.8569 164.139 27.8191C164.102 27.7685 164.087 27.7536 164.091 27.7705C164.095 27.7874 164.082 27.7963 164.055 27.7933C164.032 27.7874 164.025 27.7804 164.034 27.7705C164.045 27.7616 164.036 27.7536 164.015 27.7477C163.978 27.7288 163.976 27.7159 164.009 27.7119C164.045 27.706 164.011 27.6951 163.908 27.6822C163.841 27.6762 163.803 27.6782 163.796 27.6841C163.794 27.699 163.783 27.701 163.758 27.6901C163.732 27.6772 163.708 27.6623 163.682 27.6434C163.659 27.6246 163.635 27.6117 163.612 27.6057C163.589 27.5998 163.58 27.6077 163.584 27.6335C163.58 27.6951 163.551 27.7099 163.494 27.6782C163.479 27.6653 163.462 27.6633 163.447 27.6692C163.433 27.6782 163.435 27.6861 163.449 27.699C163.472 27.708 163.477 27.7159 163.464 27.7288C163.451 27.7397 163.442 27.7377 163.431 27.7179C163.433 27.703 163.405 27.6901 163.348 27.6822C163.292 27.6732 163.275 27.6633 163.298 27.6544C163.31 27.6434 163.306 27.6375 163.283 27.6395C163.26 27.6395 163.236 27.6415 163.213 27.6415C163.19 27.6434 163.173 27.6415 163.163 27.6395C163.15 27.6355 163.161 27.6266 163.19 27.6117C163.226 27.5908 163.228 27.5759 163.194 27.565C163.15 27.5352 163.11 27.5204 163.076 27.5184C163.042 27.5164 162.935 27.5243 162.756 27.5412C162.639 27.5541 162.555 27.562 162.504 27.562C162.454 27.562 162.407 27.5879 162.369 27.6405C162.382 27.6831 162.369 27.708 162.33 27.7099C162.29 27.7139 162.262 27.7229 162.249 27.7358C162.272 27.7417 162.272 27.7546 162.251 27.7755C162.229 27.7963 162.207 27.8052 162.184 27.7983C162.173 27.7943 162.161 27.7983 162.148 27.8112C162.152 27.837 162.14 27.841 162.108 27.8281C162.079 27.8152 162.062 27.8241 162.06 27.8559C162.013 27.8727 161.964 27.9085 161.919 27.9611C161.87 28.0137 161.822 28.0683 161.771 28.1239C161.72 28.1805 161.681 28.2341 161.647 28.2887C161.615 28.3413 161.598 28.379 161.602 28.4048C161.568 28.4663 161.531 28.5289 161.484 28.5924C161.439 28.6579 161.383 28.7234 161.315 28.7909C161.252 28.8505 161.227 28.8813 161.237 28.8862C161.25 28.8902 161.254 28.9071 161.252 28.9369C161.244 28.9577 161.235 28.9597 161.224 28.9408C161.226 28.9111 161.209 28.913 161.171 28.9498C161.146 28.9895 161.138 29.0173 161.149 29.0361C161.159 29.055 161.134 29.0868 161.072 29.1314C161.021 29.1801 161.009 29.2009 161.032 29.191C161.07 29.1721 161.07 29.1801 161.034 29.2227C161.001 29.2625 160.954 29.3131 160.897 29.3766C160.841 29.4381 160.785 29.4967 160.733 29.5583C160.68 29.6148 160.652 29.6536 160.65 29.6684C160.622 29.723 160.566 29.7886 160.479 29.867C160.395 29.9434 160.324 30.0079 160.266 30.0635C160.15 30.2174 160.076 30.2898 160.043 30.2789C160.039 30.27 160.034 30.266 160.03 30.27C160.028 30.272 160.028 30.2789 160.034 30.2889C160.055 30.3097 160.055 30.3375 160.036 30.3712C160.015 30.405 159.991 30.4219 159.962 30.4199C159.934 30.4199 159.903 30.4427 159.872 30.4874C159.863 30.5251 159.859 30.5489 159.861 30.5608C159.863 30.5727 159.853 30.5926 159.827 30.6154C159.796 30.6303 159.79 30.6412 159.806 30.6452C159.823 30.6492 159.829 30.6641 159.821 30.6849C159.825 30.6939 159.825 30.6998 159.815 30.6998C159.806 30.7018 159.8 30.6978 159.797 30.6889C159.774 30.6829 159.759 30.6849 159.752 30.6998C159.746 30.7127 159.741 30.7316 159.739 30.7544C159.737 30.7772 159.735 30.8011 159.733 30.8239C159.731 30.8447 159.727 30.8596 159.72 30.8666C159.695 30.9212 159.673 30.9658 159.663 30.9976C159.653 31.0294 159.645 31.0542 159.641 31.074C159.637 31.0909 159.632 31.0889 159.628 31.0631C159.619 31.0443 159.607 31.0423 159.594 31.0542C159.594 31.0691 159.596 31.1048 159.605 31.1614C159.611 31.218 159.613 31.2547 159.613 31.2686C159.611 31.3004 159.607 31.3153 159.6 31.3133C159.594 31.3113 159.589 31.3043 159.589 31.2924C159.587 31.2795 159.583 31.2696 159.578 31.2607C159.572 31.2497 159.563 31.2587 159.55 31.2884C159.552 31.3113 159.539 31.3351 159.511 31.3579C159.479 31.3808 159.486 31.3976 159.531 31.4105C159.565 31.4215 159.565 31.4294 159.529 31.4334C159.483 31.4354 159.466 31.4632 159.481 31.5138C159.494 31.5644 159.524 31.5902 159.569 31.5872C159.607 31.6061 159.643 31.6061 159.676 31.5892C159.708 31.5704 159.704 31.5684 159.663 31.5783C159.647 31.5803 159.626 31.5803 159.604 31.5723C159.617 31.5614 159.647 31.5575 159.694 31.5594C159.743 31.5614 159.754 31.5704 159.722 31.5852L159.705 31.6041L159.72 31.6081C159.743 31.614 159.75 31.623 159.737 31.6359C159.718 31.6547 159.743 31.6508 159.81 31.6269C159.878 31.6031 159.916 31.6011 159.927 31.621C159.964 31.6398 160.007 31.6359 160.049 31.6101C160.091 31.5823 160.112 31.5892 160.116 31.6289L160.133 31.6101C160.184 31.5634 160.226 31.5446 160.26 31.5535C160.271 31.5575 160.29 31.5475 160.313 31.5217L160.359 31.4771C160.361 31.4622 160.365 31.4512 160.372 31.4453C160.391 31.4264 160.402 31.4225 160.408 31.4324C160.423 31.4453 160.419 31.4532 160.393 31.4582C160.365 31.4602 160.363 31.4671 160.387 31.4731C160.408 31.479 160.436 31.4711 160.468 31.4502C160.497 31.4274 160.518 31.4244 160.527 31.4443C160.544 31.4572 160.55 31.4592 160.544 31.4483C160.529 31.4354 160.548 31.4056 160.604 31.3599C160.658 31.3133 160.675 31.2884 160.654 31.2815C160.631 31.2726 160.626 31.2646 160.637 31.2517C160.65 31.2408 160.663 31.2388 160.673 31.2517C160.684 31.2626 160.692 31.2557 160.701 31.2348L160.729 31.2071C160.74 31.2259 160.754 31.2279 160.775 31.216C160.796 31.2031 160.792 31.1951 160.764 31.1951C160.731 31.1693 160.742 31.1485 160.794 31.1336C160.847 31.1167 160.878 31.0998 160.884 31.079C160.88 31.0532 160.895 31.0452 160.929 31.0562C160.984 31.0333 161.022 31.0016 161.049 30.9609C161.075 30.9232 161.134 30.8725 161.225 30.813C161.311 30.7435 161.369 30.6948 161.396 30.669C161.423 30.6412 161.438 30.6204 161.44 30.6035C161.438 30.5638 161.446 30.5549 161.468 30.5777C161.483 30.6055 161.491 30.6035 161.494 30.5737C161.502 30.5509 161.519 30.538 161.545 30.534C161.572 30.532 161.604 30.5112 161.64 30.4745C161.672 30.4427 161.699 30.4219 161.72 30.409C161.741 30.3941 161.754 30.3861 161.76 30.3792C161.766 30.3881 161.781 30.3812 161.805 30.3583L161.982 30.1856C162.008 30.1628 162.022 30.1538 162.029 30.1648C162.038 30.1816 162.05 30.1876 162.065 30.1816C162.08 30.1727 162.096 30.1608 162.115 30.1439C162.134 30.1251 162.151 30.1042 162.168 30.0824C162.183 30.0595 162.202 30.0466 162.219 30.0447C162.248 30.0278 162.288 30 162.341 29.9563C162.393 29.9126 162.442 29.87 162.485 29.8273L162.601 29.7151C162.636 29.6813 162.645 29.6665 162.626 29.6684C162.615 29.6645 162.622 29.6595 162.644 29.6496C162.65 29.6456 162.678 29.6238 162.727 29.593C162.775 29.5593 162.826 29.5255 162.877 29.4898C162.929 29.454 162.972 29.4203 163.006 29.3865C163.041 29.3528 163.05 29.3299 163.034 29.317C163.026 29.319 163.019 29.319 163.015 29.319C163.019 29.3131 163.032 29.3081 163.052 29.3002C163.169 29.2009 163.253 29.1354 163.302 29.1016C163.35 29.0699 163.395 29.0322 163.435 28.9944C163.474 28.9547 163.53 28.8991 163.599 28.8257C163.667 28.7493 163.774 28.6291 163.92 28.4604C163.984 28.3988 164.008 28.3423 163.998 28.2897C163.987 28.2351 164.015 28.1963 164.081 28.1775C164.092 28.1795 164.106 28.1735 164.12 28.1586C164.135 28.1437 164.15 28.1269 164.163 28.108C164.178 28.0872 164.18 28.0703 164.172 28.0574L164.166 28.0584ZM159.867 31.5118C159.865 31.5267 159.844 31.5267 159.801 31.5118C159.759 31.4949 159.749 31.4969 159.77 31.5207C159.791 31.5416 159.789 31.5525 159.759 31.5525C159.729 31.5505 159.714 31.5465 159.708 31.5376C159.676 31.4979 159.699 31.4741 159.778 31.4701C159.856 31.4641 159.885 31.479 159.866 31.5128L159.867 31.5118ZM159.924 31.6051C159.881 31.5902 159.875 31.5674 159.907 31.5356C159.944 31.4999 159.953 31.5019 159.936 31.5396C159.92 31.5773 159.926 31.5962 159.953 31.5962C159.974 31.619 159.964 31.622 159.924 31.6051ZM159.957 30.4447C159.963 30.4387 159.976 30.4358 159.997 30.4387C160.016 30.4407 160.02 30.4497 160.008 30.4596C159.991 30.4636 159.976 30.4616 159.965 30.4596C159.952 30.4556 159.95 30.4507 159.957 30.4447ZM160.019 31.5336C160.006 31.5465 159.996 31.5545 159.983 31.5594C159.972 31.5634 159.968 31.5634 159.975 31.5575C159.964 31.5386 159.983 31.5237 160.03 31.5148C160.076 31.5039 160.074 31.5108 160.019 31.5336ZM161.705 28.3274C161.701 28.3611 161.697 28.384 161.697 28.3988C161.681 28.4435 161.675 28.4455 161.675 28.4117C161.675 28.376 161.681 28.3522 161.693 28.3403C161.702 28.3194 161.706 28.3065 161.708 28.3065C161.708 28.3105 161.708 28.3174 161.706 28.3274H161.705ZM161.75 28.2619C161.714 28.2678 161.71 28.2599 161.731 28.239C161.752 28.2182 161.765 28.2112 161.771 28.2222C161.775 28.2311 161.769 28.245 161.75 28.2619ZM161.891 28.2321C161.878 28.245 161.863 28.249 161.846 28.243C161.829 28.239 161.827 28.2301 161.84 28.2172C161.853 28.2063 161.866 28.2023 161.883 28.2063C161.9 28.2122 161.904 28.2212 161.892 28.2321H161.891ZM162.522 29.724C162.505 29.7429 162.495 29.7558 162.495 29.7637C162.495 29.7697 162.497 29.7766 162.5 29.7766C162.506 29.7786 162.511 29.7806 162.513 29.7876C162.513 29.7935 162.499 29.8064 162.463 29.8253C162.433 29.8402 162.423 29.8213 162.433 29.7687C162.469 29.6923 162.502 29.6615 162.536 29.6694C162.557 29.6754 162.553 29.6952 162.521 29.724H162.522ZM162.818 29.4808L162.782 29.5166C162.747 29.5225 162.747 29.5146 162.782 29.4937C162.803 29.4808 162.816 29.4769 162.82 29.4769C162.82 29.4769 162.82 29.4788 162.818 29.4808ZM163.011 29.3478C162.992 29.3756 162.973 29.3875 162.956 29.3925C162.9 29.3905 162.9 29.3756 162.96 29.3458C163.013 29.323 163.03 29.323 163.011 29.3478ZM163.361 28.9577C163.37 28.9766 163.35 28.9934 163.305 29.0123C163.292 29.0232 163.288 29.0252 163.292 29.0123C163.296 29.0014 163.303 28.9915 163.314 28.9786C163.327 28.9676 163.342 28.9577 163.357 28.9508C163.372 28.9418 163.374 28.9448 163.361 28.9567V28.9577ZM163.978 28.2321C163.972 28.2529 163.963 28.2529 163.957 28.2321C163.948 28.2112 163.957 28.2023 163.98 28.2092C163.99 28.2132 163.99 28.2202 163.978 28.2321ZM164.045 28.1457C164.013 28.1755 163.994 28.1795 163.988 28.1586C163.981 28.1378 163.994 28.1229 164.031 28.1189C164.091 28.0891 164.095 28.0981 164.046 28.1467L164.045 28.1457Z" fill="#680070"/>
<path d="M113.112 31.3958C113.019 31.4405 112.927 31.4842 112.829 31.5308C110.719 32.5651 108.98 34.2616 107.61 36.6261C106.928 37.7974 106.439 38.9648 106.137 40.1301C105.831 38.9439 105.721 37.7617 105.805 36.5824C105.972 34.2417 106.869 32.6058 108.494 31.6767C109.862 30.8955 111.401 30.8012 113.112 31.3958Z" fill="#680070"/>
<path d="M121.123 43.9237C120.952 46.2644 120.055 47.9112 118.43 48.8582C116.88 49.7635 115.109 49.7704 113.117 48.8691C113.438 48.7549 113.763 48.6219 114.097 48.4621C116.207 47.4486 117.946 45.7601 119.319 43.3986C119.953 42.3077 120.421 41.2207 120.725 40.1338C121.081 41.4004 121.214 42.6641 121.124 43.9247L121.123 43.9237Z" fill="#680070"/>
<path d="M45.9318 42.0566C45.8415 41.9762 45.7502 41.8988 45.6549 41.8223C45.6549 41.8223 45.6509 41.8203 45.6489 41.8184C45.7184 41.8313 45.7859 41.8442 45.8554 41.8561L45.9318 42.0566Z" fill="#680070"/>
<path d="M53.1145 43.1851L52.9835 42.8496L39.9838 9.01709H36.6296L26.2306 35.7759L25.3481 38.0451L19.4131 53.32H22.7692L28.477 38.6447L28.5296 38.5117C31.4132 38.5881 34.1668 39.147 36.7974 40.1893C38.5156 40.8672 40.1783 41.7537 41.7894 42.8466C45.8593 45.6091 48.6953 49.1023 50.2994 53.32H57.0097L53.1155 43.1841L53.1145 43.1851ZM45.6558 41.8212C45.6558 41.8212 45.6518 41.8192 45.6498 41.8172C45.5277 41.714 45.4026 41.6107 45.2766 41.5095C45.1604 41.4142 45.0423 41.3219 44.9262 41.2286C44.812 41.1402 44.6979 41.0509 44.5847 40.9645C44.4626 40.8692 44.3395 40.7769 44.2154 40.6856C44.0616 40.5714 43.9027 40.4573 43.7469 40.3461C43.6665 40.2895 43.5861 40.2339 43.5067 40.1793C43.4392 40.1307 43.3677 40.0821 43.3002 40.0354C43.193 39.9619 43.0848 39.8895 42.9756 39.818C42.8466 39.7336 42.7155 39.6493 42.5855 39.5649L42.5835 39.5629C42.3403 39.409 42.0981 39.2591 41.8509 39.1112C41.7288 39.0398 41.6038 38.9673 41.4817 38.8958C41.3576 38.8244 41.2325 38.7549 41.1104 38.6864C40.9834 38.6169 40.8593 38.5494 40.7352 38.4819C40.6111 38.4144 40.4841 38.3509 40.357 38.2854C40.2637 38.2387 40.1714 38.1901 40.0781 38.1444C40.0354 38.1236 39.9917 38.0997 39.947 38.0809C39.8309 38.0213 39.7148 37.9667 39.5966 37.9121C39.4676 37.8506 39.3415 37.792 39.2125 37.7325C38.9554 37.6163 38.6973 37.5041 38.4382 37.3969C38.3221 37.3483 38.2039 37.3016 38.0898 37.256C38.062 37.2451 38.0372 37.2351 38.0114 37.2242C37.8992 37.1795 37.79 37.1398 37.6798 37.0952C37.654 37.0862 37.6292 37.0783 37.6034 37.0674C37.2252 36.9234 36.844 36.7904 36.4599 36.6683C36.3268 36.6237 36.1918 36.584 36.0588 36.5413H36.0549C35.9199 36.4986 35.7868 36.4589 35.6518 36.4212C35.4047 36.3497 35.1535 36.2822 34.9044 36.2167C34.8686 36.2077 34.8329 36.1998 34.7972 36.1889C34.7039 36.1661 34.6096 36.1422 34.5143 36.1214C34.4676 36.1085 34.421 36.0986 34.3733 36.0876C34.2552 36.0579 34.1351 36.0311 34.015 36.0052C33.7321 35.9417 33.4491 35.8851 33.1623 35.8325C33.065 35.8137 32.9677 35.7968 32.8714 35.7799C32.7444 35.7571 32.6163 35.7352 32.4873 35.7164C32.1369 35.6568 31.7825 35.6092 31.4251 35.5645C31.2395 35.5417 31.0519 35.5218 30.8633 35.501C30.6777 35.4821 30.4901 35.4652 30.3015 35.4504C30.1119 35.4355 29.9213 35.4206 29.7337 35.4077L36.5681 17.813L45.3063 40.4205L45.8593 41.8539L45.9357 42.0544C45.8454 41.974 45.754 41.8966 45.6587 41.8202L45.6558 41.8212Z" fill="#680070"/>
<path d="M88.4641 27.1829L85.8693 33.5121C87.9787 33.934 89.7089 34.6943 91.0599 35.7912C92.4099 36.8881 93.2844 38.0912 93.6874 39.3985C94.0865 40.7068 94.2026 41.9933 94.0359 43.2589C93.8661 44.5245 93.4442 45.6006 92.7692 46.488C91.7984 47.7119 90.7343 48.4495 89.5739 48.7026C88.4125 48.9557 87.3365 48.8386 86.3448 48.3542C85.3531 47.8698 84.3933 47.1193 83.4661 46.1068C82.2839 44.8412 81.4084 43.4167 80.8386 41.8345C80.2688 40.2532 79.9303 38.8396 79.8261 37.5939C79.7199 36.3511 79.3288 34.9683 78.6547 33.4495C77.9778 31.9308 76.9663 30.6006 75.6153 29.4621C74.3079 28.3652 72.8517 27.6048 71.2496 27.1829L68.6548 33.5121C70.5101 33.8923 72.0933 34.5673 73.4007 35.5381C74.708 36.5089 75.6153 37.6058 76.1225 38.8297C76.6297 40.0536 76.9037 41.2657 76.9454 42.4688C76.9871 43.6718 76.7131 44.7687 76.1225 45.7604C75.5309 46.752 74.708 47.4588 73.6538 47.8807C72.2204 48.3859 70.9319 48.5765 69.7934 48.4505C68.6548 48.3234 67.6731 47.8598 66.8502 47.0588C66.0273 46.2567 65.3314 45.3077 64.7616 44.2099C64.1918 43.113 63.7273 41.8265 63.3699 40.3494C63.0106 38.8724 62.7456 37.4062 62.5778 35.95C62.409 34.4948 62.3147 33.0068 62.2939 31.4881C62.2711 29.9693 62.283 28.6094 62.3257 27.4063C62.3674 26.2032 62.4527 25.1381 62.5778 24.21H56.3132C55.8476 26.0255 55.5429 28.1021 55.396 30.4438C55.2471 32.7855 55.3414 35.3177 55.6799 38.0396C56.0184 40.7594 56.6298 43.239 57.5163 45.4755C58.4017 47.7129 59.8033 49.5801 61.7251 51.078C63.6449 52.5759 65.9548 53.3234 68.6558 53.3234C70.5111 53.3234 72.2631 52.8181 73.9089 51.8046C75.5547 50.7921 76.9047 49.4421 77.9599 47.7546C79.5193 51.4681 82.1568 53.3234 85.8703 53.3234C88.9932 53.3234 91.6942 52.0061 93.9713 49.3687C96.2505 46.7322 97.389 43.7036 97.389 40.2859C97.389 36.8682 96.5552 34.1057 94.8885 31.7422C93.2219 29.3797 91.0807 27.8609 88.4651 27.1859L88.4641 27.1829Z" fill="#680070"/>
<path d="M122.673 30.772C120.118 28.2179 117.039 26.9434 113.432 26.9434C109.825 26.9434 106.755 28.2179 104.223 30.772C101.693 33.3241 100.426 36.3924 100.426 39.9808C100.426 43.3112 101.524 46.2137 103.717 48.6814C105.91 51.1511 108.632 52.5756 111.881 52.9557V58.7746H115.047V52.9557C118.295 52.5756 121.018 51.1511 123.212 48.6814C125.404 46.2137 126.502 43.3121 126.502 39.9808C126.502 36.3924 125.228 33.3241 122.674 30.772H122.673ZM113.115 48.869C111.404 49.4646 109.862 49.3693 108.495 48.5881C106.87 47.659 105.974 46.0241 105.805 43.6824C105.721 42.5021 105.831 41.3189 106.137 40.1297V40.1277C106.439 38.9624 106.928 37.795 107.61 36.6237C108.98 34.2602 110.719 32.5627 112.829 31.5284C112.927 31.4818 113.019 31.4381 113.112 31.3934H113.114C115.107 30.4921 116.879 30.498 118.431 31.4043C120.054 32.3523 120.951 33.9981 121.122 36.3388C121.21 37.5985 121.077 38.8631 120.723 40.1297V40.1317C120.419 41.2187 119.951 42.3056 119.317 43.3965C117.946 45.758 116.206 47.4465 114.095 48.46C113.762 48.6208 113.437 48.7539 113.115 48.867H113.113L113.115 48.869Z" fill="#680070"/>
<path d="M119.804 19.4101C119.791 19.3843 119.764 19.3932 119.72 19.4379C119.667 19.4637 119.652 19.4657 119.673 19.4438C119.696 19.423 119.682 19.4121 119.63 19.4101C119.529 19.4081 119.561 19.3763 119.727 19.3148C119.789 19.3039 119.806 19.283 119.778 19.2473C119.75 19.2116 119.748 19.1818 119.769 19.1609C119.809 19.1738 119.805 19.1589 119.758 19.1163C119.71 19.0736 119.706 19.0597 119.745 19.0716C119.785 19.0825 119.788 19.0547 119.751 18.9892C119.688 18.9028 119.661 18.8731 119.667 18.9028C119.676 18.9326 119.654 18.9475 119.603 18.9475C119.566 18.9346 119.553 18.9217 119.57 18.9048C119.585 18.8899 119.574 18.8751 119.534 18.8651C119.466 18.8314 119.464 18.8085 119.523 18.7996C119.587 18.7887 119.525 18.7718 119.345 18.747C119.225 18.741 119.16 18.741 119.149 18.751C119.145 18.7788 119.123 18.7827 119.079 18.7619C119.035 18.743 118.991 18.7152 118.948 18.6835C118.906 18.6497 118.864 18.6269 118.824 18.616C118.784 18.6031 118.77 18.6199 118.776 18.6626C118.767 18.7698 118.714 18.7976 118.618 18.741C118.59 18.7202 118.563 18.7152 118.535 18.7281C118.509 18.741 118.512 18.7579 118.539 18.7807C118.577 18.7917 118.588 18.8085 118.565 18.8294C118.544 18.8502 118.525 18.8443 118.506 18.8125C118.508 18.7847 118.459 18.7639 118.36 18.749C118.26 18.7321 118.231 18.7172 118.271 18.7023C118.294 18.6815 118.284 18.6706 118.243 18.6726C118.204 18.6745 118.163 18.6765 118.121 18.6785C118.082 18.6785 118.052 18.6785 118.033 18.6726C118.012 18.6666 118.029 18.6517 118.082 18.6239C118.145 18.5882 118.147 18.5604 118.088 18.5435C118.011 18.4929 117.942 18.4651 117.881 18.4631C117.822 18.4591 117.632 18.472 117.317 18.5028C117.113 18.5256 116.965 18.5385 116.874 18.5385C116.783 18.5405 116.703 18.5852 116.635 18.6755C116.658 18.752 116.637 18.7937 116.566 18.7996C116.494 18.8056 116.448 18.8205 116.425 18.8423C116.465 18.8552 116.468 18.878 116.427 18.9157C116.389 18.9515 116.348 18.9644 116.311 18.9535C116.29 18.9475 116.271 18.9555 116.247 18.9763C116.253 19.019 116.23 19.0289 116.178 19.0081C116.123 18.9852 116.095 18.9991 116.089 19.0547C116.007 19.0845 115.923 19.148 115.84 19.2403C115.758 19.3337 115.672 19.428 115.583 19.5272C115.495 19.6245 115.422 19.7218 115.364 19.8141C115.307 19.9094 115.279 19.9769 115.287 20.0206C115.226 20.1258 115.158 20.238 115.078 20.3521C114.998 20.4663 114.898 20.5824 114.778 20.7005C114.668 20.8058 114.622 20.8613 114.643 20.8673C114.662 20.8733 114.671 20.903 114.666 20.9576C114.651 20.9934 114.636 20.9954 114.619 20.9636C114.623 20.909 114.593 20.9149 114.526 20.9785C114.481 21.048 114.466 21.0986 114.483 21.1323C114.502 21.1641 114.458 21.2187 114.35 21.2991C114.262 21.3835 114.238 21.4172 114.281 21.4023C114.344 21.3666 114.346 21.3835 114.285 21.4549C114.223 21.5264 114.144 21.6177 114.042 21.7269C113.942 21.8341 113.845 21.9404 113.753 22.0456C113.657 22.1488 113.609 22.2143 113.607 22.2421C113.558 22.3374 113.459 22.4536 113.307 22.5886C113.155 22.7236 113.03 22.8397 112.932 22.935C112.727 23.207 112.596 23.334 112.537 23.3172C112.529 23.3003 112.522 23.2943 112.516 23.3003C112.51 23.3043 112.512 23.3152 112.52 23.332C112.558 23.3698 112.56 23.4184 112.524 23.48C112.49 23.5365 112.445 23.5663 112.395 23.5663C112.346 23.5643 112.292 23.604 112.234 23.6844C112.219 23.748 112.213 23.7916 112.217 23.8135C112.219 23.8343 112.2 23.8661 112.156 23.9108C112.103 23.9366 112.092 23.9534 112.122 23.9614C112.152 23.9703 112.158 23.9932 112.145 24.0309C112.153 24.0477 112.151 24.0567 112.136 24.0607C112.119 24.0626 112.108 24.0547 112.1 24.0398C112.06 24.0269 112.034 24.0338 112.022 24.0587C112.009 24.0815 112.003 24.1133 111.999 24.154C111.999 24.1708 111.997 24.1877 111.995 24.2046C111.995 24.2304 111.993 24.2532 111.991 24.2761C111.987 24.3158 111.98 24.3416 111.97 24.3525C111.921 24.4498 111.888 24.5252 111.869 24.5828C111.848 24.6394 111.835 24.684 111.826 24.7158C111.82 24.7476 111.811 24.7436 111.805 24.6989C111.788 24.6652 111.769 24.6612 111.746 24.682C111.744 24.7098 111.75 24.7724 111.76 24.8716C111.773 24.9729 111.779 25.0364 111.777 25.0642C111.773 25.1168 111.764 25.1446 111.757 25.1407C111.746 25.1387 111.738 25.1258 111.736 25.1049C111.732 25.0821 111.727 25.0622 111.717 25.0483C111.708 25.0315 111.691 25.0464 111.668 25.095C111.674 25.1397 111.651 25.1794 111.599 25.2191C111.544 25.2588 111.556 25.2905 111.636 25.3144C111.696 25.3312 111.693 25.3441 111.632 25.3541C111.552 25.358 111.522 25.4047 111.546 25.493C111.569 25.5834 111.623 25.6261 111.702 25.6221C111.771 25.6558 111.835 25.6578 111.892 25.6261C111.951 25.5943 111.942 25.5903 111.871 25.6092C111.839 25.6132 111.805 25.6112 111.765 25.5983C111.788 25.5774 111.842 25.5685 111.926 25.5754C112.013 25.5794 112.029 25.5943 111.977 25.6201L111.943 25.6519L111.973 25.6608C112.013 25.6737 112.024 25.6886 112.001 25.7114C111.967 25.7432 112.012 25.7372 112.132 25.6965C112.25 25.6568 112.319 25.6519 112.336 25.6836C112.404 25.7174 112.475 25.7114 112.55 25.6648C112.626 25.6161 112.666 25.629 112.67 25.6985L112.702 25.6668C112.79 25.5824 112.864 25.5486 112.923 25.5655C112.942 25.5715 112.973 25.5526 113.018 25.5109L113.101 25.4325C113.103 25.4047 113.109 25.3858 113.119 25.3759C113.153 25.3441 113.172 25.3362 113.183 25.3531C113.211 25.3739 113.202 25.3888 113.155 25.3978C113.108 25.4037 113.105 25.4146 113.147 25.4255C113.185 25.4385 113.234 25.4236 113.286 25.3829C113.339 25.3422 113.375 25.3402 113.391 25.3739C113.421 25.3948 113.431 25.3968 113.423 25.3829C113.393 25.36 113.427 25.3064 113.524 25.227C113.624 25.1446 113.651 25.098 113.613 25.0861C113.573 25.0751 113.564 25.0583 113.585 25.0374C113.608 25.0166 113.628 25.0146 113.647 25.0354C113.665 25.0523 113.682 25.0444 113.695 25.0057L113.744 24.959C113.761 24.9908 113.79 24.9947 113.826 24.9719C113.862 24.9491 113.856 24.9362 113.805 24.9362C113.749 24.8915 113.768 24.8558 113.86 24.829C113.953 24.7992 114.008 24.7674 114.021 24.7297C114.012 24.685 114.04 24.6731 114.099 24.69C114.194 24.6503 114.264 24.5927 114.311 24.5252C114.355 24.4557 114.459 24.3674 114.618 24.2632C114.641 24.2443 114.665 24.2254 114.686 24.2086C114.8 24.1152 114.878 24.0477 114.918 24.008C114.969 23.9614 114.995 23.9237 114.997 23.8959C114.993 23.8264 115.009 23.8095 115.045 23.8492C115.073 23.8979 115.088 23.8959 115.092 23.8403C115.105 23.8026 115.134 23.7807 115.18 23.7728C115.227 23.7668 115.281 23.7301 115.349 23.6676C115.404 23.615 115.45 23.5772 115.486 23.5534C115.522 23.5276 115.547 23.5107 115.557 23.5008C115.568 23.5177 115.593 23.5048 115.638 23.4631L115.948 23.1613C115.993 23.1186 116.018 23.1047 116.029 23.1216C116.046 23.1554 116.067 23.1643 116.094 23.1514C116.12 23.1385 116.149 23.1156 116.183 23.0839C116.216 23.0521 116.246 23.0164 116.276 22.9767C116.304 22.937 116.333 22.9151 116.364 22.9112C116.415 22.8834 116.488 22.8327 116.58 22.7573C116.673 22.6789 116.757 22.6034 116.833 22.529L117.037 22.3305C117.099 22.2709 117.114 22.2461 117.082 22.2501C117.063 22.2441 117.073 22.2332 117.116 22.2183C117.127 22.2074 117.175 22.1736 117.26 22.1151C117.346 22.0585 117.434 21.9969 117.526 21.9334C117.616 21.8699 117.693 21.8113 117.752 21.7517C117.814 21.6922 117.829 21.6525 117.801 21.6316C117.739 21.6406 117.75 21.6297 117.833 21.5999C118.039 21.4252 118.185 21.309 118.269 21.2515C118.356 21.1919 118.434 21.1294 118.506 21.0619C118.575 20.9924 118.672 20.8931 118.792 20.7621C118.914 20.631 119.103 20.4176 119.36 20.1208C119.47 20.0156 119.514 19.9144 119.497 19.8191C119.48 19.7238 119.527 19.6583 119.641 19.6225C119.66 19.6285 119.686 19.6185 119.713 19.5927C119.74 19.5649 119.763 19.5332 119.786 19.4994C119.812 19.4657 119.816 19.4359 119.801 19.4111L119.804 19.4101ZM112.235 25.4891C112.233 25.5169 112.195 25.5149 112.121 25.4871C112.047 25.4573 112.03 25.4643 112.066 25.502C112.104 25.5397 112.098 25.5586 112.047 25.5586C111.997 25.5566 111.967 25.5476 111.959 25.5328C111.904 25.4613 111.944 25.4206 112.081 25.4126C112.218 25.4037 112.269 25.4295 112.235 25.4891ZM112.336 25.6539C112.263 25.6241 112.252 25.5844 112.306 25.5318C112.372 25.4682 112.391 25.4702 112.359 25.5357C112.329 25.6032 112.338 25.637 112.389 25.639C112.427 25.6767 112.408 25.6816 112.336 25.6539ZM112.505 25.5268C112.484 25.5476 112.46 25.5625 112.441 25.5715C112.421 25.5774 112.414 25.5754 112.425 25.5655C112.408 25.5337 112.439 25.5089 112.522 25.4921C112.604 25.4752 112.6 25.4861 112.505 25.5278V25.5268ZM112.398 23.61C112.409 23.5991 112.432 23.5951 112.467 23.5991C112.501 23.6011 112.51 23.614 112.486 23.6348C112.456 23.6388 112.43 23.6388 112.41 23.6328C112.391 23.6288 112.387 23.6199 112.397 23.61H112.398ZM115.475 19.8806C115.464 19.9402 115.458 19.9819 115.456 20.0096C115.43 20.0861 115.418 20.092 115.416 20.0305C115.416 19.967 115.429 19.9253 115.45 19.9034C115.476 19.83 115.484 19.821 115.476 19.8806H115.475ZM115.551 19.7684C115.49 19.7774 115.48 19.7645 115.518 19.7258C115.555 19.69 115.579 19.6791 115.587 19.696C115.598 19.7109 115.585 19.7357 115.551 19.7674V19.7684ZM115.799 19.7158C115.778 19.7367 115.75 19.7436 115.72 19.7347C115.69 19.7258 115.688 19.7119 115.709 19.69C115.73 19.6692 115.756 19.6622 115.786 19.6712C115.817 19.6801 115.821 19.694 115.799 19.7158ZM116.913 22.3434C116.88 22.3751 116.863 22.396 116.863 22.4109C116.861 22.4238 116.865 22.4317 116.876 22.4367C116.887 22.4387 116.892 22.4426 116.896 22.4516C116.9 22.4605 116.871 22.4833 116.808 22.5191C116.755 22.5469 116.739 22.5131 116.755 22.4218C116.817 22.2868 116.876 22.2272 116.937 22.2471C116.975 22.258 116.969 22.2898 116.914 22.3444L116.913 22.3434ZM117.432 21.9145L117.367 21.9781C117.305 21.989 117.305 21.9741 117.369 21.9384C117.432 21.9006 117.453 21.8937 117.432 21.9155V21.9145ZM117.768 21.6823C117.734 21.7269 117.702 21.7517 117.671 21.7557C117.571 21.7537 117.573 21.7279 117.677 21.6753C117.772 21.6326 117.801 21.6356 117.767 21.6813L117.768 21.6823ZM118.285 21.0867C118.264 21.1075 118.255 21.1095 118.262 21.0906C118.271 21.0718 118.283 21.0509 118.307 21.0291C118.328 21.0083 118.354 20.9914 118.378 20.9785C118.403 20.9656 118.408 20.9695 118.384 20.9914C118.401 21.0231 118.37 21.0549 118.285 21.0867ZM119.471 19.7148C119.458 19.7526 119.444 19.7506 119.434 19.7128C119.421 19.6751 119.434 19.6622 119.473 19.6751C119.494 19.6791 119.492 19.694 119.471 19.7148ZM119.59 19.563C119.535 19.6156 119.501 19.6225 119.488 19.5838C119.475 19.5461 119.501 19.5223 119.562 19.5143C119.667 19.4617 119.676 19.4766 119.59 19.563Z" fill="#680070"/>
<path d="M39.8025 6.892C39.739 6.88108 39.739 6.86917 39.7985 6.8523C39.8789 6.82947 39.8918 6.7977 39.8362 6.757C39.7836 6.7173 39.7598 6.6766 39.7668 6.63292C39.7409 6.58428 39.727 6.56939 39.7161 6.58627C39.7072 6.60116 39.7032 6.62002 39.6993 6.64285C39.6953 6.66369 39.6883 6.6766 39.6784 6.67858C39.6695 6.68255 39.6615 6.65575 39.6576 6.60215C39.6556 6.57436 39.6615 6.51182 39.6744 6.41255C39.6854 6.3113 39.6913 6.24777 39.6893 6.21998C39.6665 6.19913 39.6466 6.20311 39.6298 6.23686C39.6238 6.28152 39.6149 6.28549 39.6089 6.25373C39.6 6.22197 39.5881 6.1773 39.5662 6.12071C39.5474 6.06413 39.5136 5.9877 39.465 5.89042C39.4541 5.8795 39.4481 5.85468 39.4441 5.81399C39.4422 5.77428 39.4382 5.73358 39.4362 5.69388C39.4322 5.65119 39.4253 5.62042 39.4134 5.5966C39.4005 5.57079 39.3756 5.56483 39.3349 5.57774C39.326 5.59263 39.3161 5.60057 39.2992 5.59858C39.2843 5.59461 39.2804 5.58568 39.2883 5.5688C39.2754 5.53307 39.2843 5.50924 39.3141 5.49932C39.3439 5.49038 39.333 5.47351 39.2804 5.44869C39.2357 5.40601 39.2168 5.37226 39.2188 5.35141C39.2228 5.33057 39.2168 5.2859 39.2019 5.22237C39.1454 5.14196 39.0898 5.10226 39.0391 5.10424C38.9905 5.10424 38.9458 5.07446 38.9121 5.01788C38.8763 4.95832 38.8783 4.91068 38.9141 4.86998C38.925 4.8531 38.925 4.84218 38.92 4.83821C38.9141 4.83226 38.9071 4.83821 38.8992 4.85509C38.8396 4.87196 38.7066 4.7449 38.5041 4.47292C38.4048 4.37762 38.2808 4.26148 38.1289 4.12648C37.977 3.99148 37.8758 3.87534 37.8291 3.78005C37.8271 3.75225 37.7785 3.68674 37.6832 3.5835C37.5899 3.48027 37.4936 3.37207 37.3943 3.26486C37.2931 3.15468 37.2127 3.06435 37.1511 2.99288C37.0896 2.92141 37.0896 2.90453 37.1551 2.94027C37.1978 2.95714 37.1739 2.92141 37.0856 2.83703C36.9784 2.75861 36.9337 2.70203 36.9506 2.67027C36.9675 2.63652 36.9546 2.58589 36.9079 2.5164C36.8424 2.45288 36.8106 2.4489 36.8176 2.50152C36.7987 2.53527 36.7838 2.53129 36.7709 2.49556C36.767 2.44096 36.7729 2.41118 36.7938 2.40523C36.8126 2.39927 36.768 2.34368 36.6588 2.23846C36.5387 2.12034 36.4394 2.0042 36.359 1.89004C36.2786 1.77589 36.2091 1.66372 36.1495 1.5585C36.1585 1.51383 36.1307 1.44633 36.0731 1.35203C36.0135 1.25872 35.9421 1.16442 35.8537 1.06515C35.7654 0.967872 35.679 0.870592 35.5966 0.778276C35.5142 0.684967 35.4279 0.624415 35.3455 0.59265C35.3415 0.538055 35.3117 0.523165 35.2591 0.545996C35.2045 0.566842 35.1827 0.5589 35.1896 0.514231C35.1668 0.493385 35.145 0.484452 35.1261 0.4914C35.0864 0.504305 35.0477 0.489415 35.01 0.45368C34.9703 0.415959 34.9723 0.392135 35.012 0.380223C34.9891 0.359378 34.9425 0.346473 34.871 0.33754C34.7995 0.331584 34.7777 0.2889 34.8015 0.215444C34.734 0.122135 34.6536 0.078458 34.5633 0.078458C34.473 0.0764727 34.325 0.0635683 34.1196 0.0407373C33.8049 0.00897256 33.6153 -0.00393188 33.5557 0.00103137C33.4942 0.00500196 33.4247 0.0308109 33.3493 0.081436C33.2897 0.098311 33.2927 0.126105 33.3552 0.163826C33.4078 0.189635 33.4247 0.203532 33.4039 0.21048C33.385 0.216436 33.3532 0.219414 33.3135 0.216436C33.2738 0.214451 33.2331 0.212466 33.1934 0.21048C33.1507 0.208495 33.1428 0.219414 33.1636 0.24026C33.2063 0.25515 33.1766 0.270039 33.0773 0.286914C32.978 0.301804 32.9274 0.32265 32.9294 0.350444C32.9125 0.382209 32.8936 0.388165 32.8698 0.367319C32.849 0.346473 32.8569 0.329598 32.8976 0.318679C32.9254 0.295848 32.9274 0.278973 32.9016 0.266069C32.8738 0.253164 32.847 0.257135 32.8192 0.278973C32.7219 0.335554 32.6673 0.310738 32.6614 0.200554C32.6673 0.15787 32.6504 0.140995 32.6107 0.153899C32.573 0.164819 32.5303 0.187649 32.4886 0.2214C32.444 0.25515 32.4023 0.280959 32.3576 0.299819C32.3129 0.320664 32.2921 0.316694 32.2881 0.2889C32.2772 0.277981 32.2117 0.277981 32.0916 0.284929C31.9099 0.310738 31.8514 0.327613 31.9119 0.33754C31.9735 0.348459 31.9715 0.369304 31.904 0.403054C31.8643 0.413974 31.8514 0.428863 31.8682 0.44276C31.8851 0.459635 31.8722 0.474525 31.8345 0.485444C31.7839 0.485444 31.763 0.47254 31.769 0.440775C31.7779 0.410996 31.7501 0.440775 31.6846 0.529121C31.6509 0.59265 31.6528 0.619452 31.6906 0.609525C31.7332 0.596621 31.7283 0.611511 31.6796 0.654195C31.633 0.696879 31.629 0.710776 31.6667 0.698864C31.6896 0.71971 31.6856 0.749489 31.6578 0.785224C31.632 0.82096 31.6469 0.841805 31.7084 0.852725C31.8772 0.914269 31.9089 0.946034 31.8077 0.948019C31.7571 0.950004 31.7422 0.960923 31.765 0.981769C31.7859 1.00261 31.771 1.00063 31.7184 0.975813C31.6737 0.931144 31.6469 0.923203 31.632 0.948019C31.6191 0.973828 31.624 1.00261 31.6469 1.03636C31.6697 1.0721 31.6955 1.10188 31.7233 1.12967C31.7511 1.15548 31.7759 1.16541 31.7948 1.15945C31.9089 1.19519 31.9556 1.2607 31.9387 1.356C31.9199 1.45129 31.9665 1.55254 32.0757 1.65776C32.3328 1.95556 32.5214 2.17096 32.6415 2.29901C32.7636 2.43004 32.8589 2.52931 32.9304 2.59879C33.0018 2.66629 33.0803 2.73181 33.1666 2.78839C33.251 2.84497 33.3969 2.96111 33.6034 3.13681C33.6858 3.16659 33.6967 3.17949 33.6352 3.16858C33.6074 3.18942 33.6223 3.23211 33.6838 3.28869C33.7434 3.34825 33.8188 3.40681 33.9101 3.47233C34.0004 3.53387 34.0898 3.59442 34.1742 3.65398C34.2605 3.71056 34.3092 3.74431 34.3201 3.75523C34.3628 3.77012 34.3727 3.78104 34.3518 3.787C34.3221 3.78303 34.337 3.80983 34.3965 3.8674L34.603 4.06593C34.6794 4.13939 34.7638 4.21582 34.8561 4.29424C34.9464 4.37067 35.0209 4.4213 35.0715 4.4481C35.1033 4.45207 35.1331 4.47391 35.1599 4.51362C35.1896 4.55332 35.2194 4.59005 35.2532 4.6238C35.2849 4.65556 35.3167 4.67641 35.3415 4.68931C35.3693 4.70222 35.3902 4.69328 35.407 4.65953C35.416 4.64266 35.4428 4.65755 35.4874 4.69924L35.7981 5.00101C35.8428 5.04369 35.8676 5.0556 35.8785 5.03873C35.8895 5.04965 35.9123 5.06652 35.95 5.09134C35.9858 5.11417 36.0324 5.15288 36.087 5.20549C36.1525 5.26902 36.2091 5.30476 36.2557 5.3127C36.3024 5.31865 36.3322 5.34248 36.3441 5.37821C36.3481 5.43281 36.363 5.43479 36.3907 5.38715C36.4265 5.34744 36.4434 5.36432 36.4394 5.4338C36.4414 5.4616 36.4672 5.49932 36.5158 5.54796C36.5664 5.59461 36.6657 5.67899 36.8176 5.80108C36.9784 5.90432 37.0816 5.99366 37.1253 6.06314C37.172 6.13263 37.2415 6.18722 37.3367 6.22991C37.3963 6.21105 37.4231 6.22395 37.4152 6.26763C37.4281 6.30535 37.4827 6.33711 37.576 6.36689C37.6693 6.39469 37.6862 6.43042 37.6286 6.4741C37.5799 6.4741 37.572 6.487 37.6097 6.51182C37.6455 6.53465 37.6752 6.52869 37.6921 6.49693L37.7408 6.54557C37.7537 6.5813 37.7705 6.59222 37.7894 6.57336C37.8083 6.55252 37.8271 6.5545 37.8509 6.57535C37.8718 6.59619 37.8638 6.61307 37.8231 6.62399C37.7854 6.63689 37.8122 6.68355 37.9095 6.76494C38.0088 6.84535 38.0425 6.89796 38.0127 6.92079C38.0038 6.93568 38.0147 6.93369 38.0425 6.91186C38.0594 6.87811 38.0971 6.88208 38.1497 6.92079C38.2023 6.9605 38.251 6.97539 38.2887 6.96347C38.3284 6.95256 38.3244 6.94263 38.2798 6.93568C38.2331 6.92675 38.2252 6.91285 38.252 6.89101C38.2629 6.87414 38.2817 6.88208 38.3155 6.91384C38.3264 6.92476 38.3324 6.94362 38.3344 6.97042L38.4167 7.04884C38.4614 7.09153 38.4932 7.11039 38.512 7.10344C38.5716 7.08656 38.6451 7.12031 38.7334 7.20469L38.7652 7.23645C38.7691 7.16697 38.8098 7.15406 38.8833 7.2027C38.9597 7.24936 39.0312 7.25531 39.0987 7.22156C39.1156 7.1898 39.1851 7.19377 39.3032 7.23447C39.4233 7.27417 39.466 7.28112 39.4342 7.24936C39.4114 7.22851 39.4213 7.21164 39.459 7.19873L39.4888 7.1898L39.457 7.15803C39.4044 7.13222 39.4213 7.11833 39.5057 7.11336C39.592 7.10939 39.6447 7.11535 39.6685 7.13917C39.6288 7.15009 39.592 7.15208 39.5633 7.14811C39.4918 7.12925 39.4829 7.13322 39.5424 7.16498C39.599 7.19675 39.6625 7.19476 39.73 7.163C39.8124 7.16498 39.865 7.12329 39.8879 7.03395C39.9107 6.94362 39.8819 6.89697 39.8015 6.893L39.8025 6.892ZM31.8514 1.10089C31.765 1.01651 31.7729 0.999637 31.8792 1.05225C31.9407 1.06118 31.9655 1.08401 31.9526 1.12372C31.9397 1.15945 31.906 1.1535 31.8514 1.10089ZM31.9695 1.25276C31.9486 1.23192 31.9467 1.21901 31.9675 1.21306C32.0072 1.20015 32.0201 1.21306 32.0072 1.25276C31.9943 1.2885 31.9814 1.29048 31.9695 1.25276ZM33.1557 2.6246C33.0713 2.59284 33.0396 2.56107 33.0564 2.52931C33.0336 2.50846 33.0376 2.5035 33.0624 2.5164C33.0872 2.52931 33.113 2.54618 33.1339 2.56703C33.1567 2.58788 33.1696 2.60971 33.1766 2.62857C33.1855 2.64743 33.1766 2.64545 33.1557 2.6246ZM33.7682 3.29365C33.7384 3.28968 33.7066 3.26387 33.6729 3.22019C33.6391 3.17354 33.6689 3.17155 33.7612 3.21424C33.8664 3.26685 33.8684 3.29266 33.7672 3.29464L33.7682 3.29365ZM34.0739 3.51501L34.0084 3.45148C33.9875 3.43064 34.0084 3.43659 34.0719 3.47431C34.1355 3.51005 34.1354 3.52494 34.0739 3.51402V3.51501ZM34.6338 4.05501C34.5682 4.01928 34.5405 3.99545 34.5454 3.9895C34.5474 3.97858 34.5563 3.97461 34.5663 3.97262C34.5752 3.96865 34.5811 3.95972 34.5792 3.94681C34.5792 3.93192 34.5623 3.91108 34.5285 3.87931C34.4739 3.82472 34.467 3.79295 34.5057 3.78203C34.5653 3.76516 34.6258 3.82174 34.6874 3.95674C34.7042 4.04707 34.6874 4.08082 34.6348 4.05402L34.6338 4.05501ZM35.7207 1.27063C35.6889 1.28155 35.6641 1.27262 35.6423 1.25375C35.6195 1.23092 35.6234 1.21603 35.6532 1.2071C35.683 1.19817 35.7078 1.20512 35.7316 1.22596C35.7525 1.24681 35.7505 1.2617 35.7207 1.27063ZM35.8895 1.30438C35.8557 1.27262 35.8428 1.24978 35.8537 1.23291C35.8627 1.21603 35.8855 1.22695 35.9232 1.26467C35.9609 1.30041 35.951 1.3153 35.8895 1.30438ZM35.9848 1.54758C35.9828 1.51978 35.9758 1.47611 35.9659 1.41655C35.958 1.35699 35.9639 1.36592 35.9917 1.44236C36.0126 1.4632 36.0255 1.5039 36.0235 1.56644C36.0235 1.62798 36.0106 1.62104 35.9857 1.54758H35.9848ZM38.9984 7.10741C38.9796 7.09847 38.9558 7.08458 38.9349 7.06274C38.8396 7.02006 38.8356 7.01013 38.916 7.027C39.0004 7.04388 39.0322 7.06969 39.0133 7.10344C39.0242 7.11237 39.0193 7.11436 38.9984 7.10741ZM38.9538 5.17174C38.9309 5.1509 38.9369 5.13799 38.9726 5.13601C39.0084 5.13204 39.0322 5.13601 39.0421 5.14693C39.053 5.15784 39.0481 5.16579 39.0292 5.17273C39.0104 5.17671 38.9826 5.17671 38.9528 5.17273L38.9538 5.17174ZM39.1037 7.1898C39.0322 7.21759 39.0133 7.21263 39.0491 7.17491C39.1017 7.17292 39.1106 7.13917 39.0808 7.07366C39.0491 7.00616 39.0659 7.00417 39.1334 7.0677C39.186 7.12031 39.1781 7.16101 39.1037 7.1898ZM39.4819 7.06969C39.4709 7.08458 39.4441 7.09252 39.3935 7.0955C39.3429 7.0955 39.3369 7.07862 39.3747 7.03892C39.4104 7.0012 39.3935 6.99425 39.3201 7.02403C39.2466 7.05182 39.2079 7.05381 39.2059 7.02601C39.1702 6.96645 39.2228 6.94164 39.3598 6.94958C39.4948 6.95851 39.5374 6.99822 39.4819 7.06969Z" fill="#680070"/>
<path d="M45.2757 41.5099C45.1596 41.4146 45.0415 41.3222 44.9253 41.2289C44.8112 41.1406 44.697 41.0512 44.5839 40.9649C44.4618 40.8696 44.3387 40.7773 44.2146 40.686C44.0607 40.5718 43.9019 40.4576 43.7461 40.3465C43.6657 40.2899 43.5853 40.2343 43.5058 40.1797C43.4383 40.1311 43.3669 40.0824 43.2994 40.0358C43.1922 39.9623 43.084 39.8898 42.9748 39.8184C42.8457 39.734 42.7147 39.6496 42.5847 39.5653L42.5827 39.5633L27.7297 34.871C27.7297 34.871 27.1897 35.3207 26.2327 35.7763C24.707 36.5109 22.1321 37.2683 19.035 36.2677C16.9435 35.5897 15.0327 34.5226 13.0087 33.6838C12.2275 33.3632 11.3559 33.0376 10.5161 32.9383C9.27333 32.7944 7.83598 33.2123 6.6577 33.5627C5.47148 33.9171 4.26839 34.2526 3.15563 34.8124C2.29898 35.2433 1.58923 35.8825 0.985701 36.623C0.702796 36.9695 0.419891 37.3298 0.177684 37.706C0.13103 37.7775 0 37.9254 0 38.0167C0 38.249 0.0784193 38.1646 0.288861 38.0673C0.961877 37.7527 1.57633 37.1075 2.13618 36.634C3.10302 35.813 4.44906 34.9752 5.53898 36.0493C6.32417 36.8216 6.68748 37.8916 7.48458 38.66C8.2509 39.3965 9.24057 39.9157 10.3067 40.009C11.7232 40.136 13.4722 39.5871 14.5939 38.7126C15.2908 38.1676 15.7375 37.6167 16.6328 37.3874C17.422 37.1849 18.7541 37.0161 19.5165 37.4023C19.715 37.5055 19.8669 37.6792 20.0485 37.8122C20.3612 38.0405 20.7404 38.1368 21.1295 38.1666C21.2963 38.1795 21.469 38.1795 21.6358 38.1706C22.7992 38.111 24.1522 37.8797 25.3503 38.0435C25.53 38.0664 25.7047 38.0981 25.8734 38.1428C26.0144 38.1785 26.9792 38.3622 28.4781 38.6431L28.5307 38.5101C31.4144 38.5865 34.168 39.1454 36.7985 40.1876C39.703 40.7237 42.8179 41.2954 45.651 41.8146C45.5289 41.7114 45.4038 41.6081 45.2777 41.5069L45.2757 41.5099ZM14.1701 37.2444C14.0936 37.6852 13.8137 38.0743 13.4633 38.3522C12.695 38.9647 11.6815 39.1732 10.7216 39.1057C10.4645 39.0868 10.2064 39.0511 9.95925 38.9984C9.5076 38.9032 9.05991 38.7602 8.67576 38.5071C8.03451 38.0832 7.70693 37.3735 7.698 36.6141C7.68311 35.0904 8.67278 33.7811 10.2392 33.7394C11.8473 33.6947 13.4117 34.603 14.0112 36.1307C14.1482 36.4831 14.2326 36.8692 14.1691 37.2454L14.1701 37.2444ZM52.9837 42.8499L45.3025 40.4229L45.8554 41.8563C48.7748 42.3923 51.3795 42.8698 53.1137 43.1864L52.9827 42.8509L52.9837 42.8499Z" fill="#680070"/>
<path d="M19.47 29.0859C19.0839 26.0483 18.3622 24.4968 15.9769 23.8129C14.8353 23.4883 13.533 23.667 12.5661 24.3747C11.3402 25.2701 11.0821 26.7075 11.2747 28.1379C11.4157 29.204 11.6251 30.2671 11.5427 31.3481C11.5179 31.6687 11.5 32.1502 11.2896 32.4221C11.2896 32.4221 12.3259 32.844 12.3934 32.8698C12.3239 32.8271 12.4381 32.4073 12.4718 32.3546C12.5433 32.2276 12.6426 32.1521 12.7587 32.1035C12.852 32.0678 12.9533 32.0489 13.0585 32.036C14.4413 31.8673 15.8598 31.6409 17.2524 31.7551C18.933 31.9685 20.5262 32.9641 21.9636 33.8069C22.6435 34.204 23.3076 34.6179 23.9667 35.0457C24.0402 35.0944 24.6824 35.6095 24.7579 35.5758L26.1238 34.9425C26.1238 34.9425 19.8552 32.1244 19.471 29.0849L19.47 29.0859ZM18.1736 29.5246C18.0178 29.8691 17.7805 30.1877 17.4599 30.3882C17.2167 30.5401 16.9368 30.6185 16.6539 30.6671C14.9763 30.954 13.0386 30.2195 12.3775 28.5717C12.2932 28.3602 12.2296 28.1369 12.1899 27.9066C11.9983 26.7799 12.3607 25.5193 13.3632 24.9078C14.1931 24.3996 15.2503 24.3291 16.1387 24.7261C16.8981 25.0636 17.5046 25.693 17.9076 26.4186C18.4287 27.3596 18.6144 28.5419 18.1736 29.5256V29.5246Z" fill="#680070"/>
</svg>
