<svg width="3267" height="960" viewBox="0 0 3267 960" fill="none" xmlns="http://www.w3.org/2000/svg">
<g clip-path="url(#clip0_103_96)">
<path d="M2299.06 690.176C2299.85 700.374 2302.19 709.032 2306.1 716.166C2302.17 709.032 2299.82 700.374 2299.03 690.176C2298.65 685.003 2298.69 679.799 2299.17 674.594C2298.69 679.799 2298.65 685.003 2299.07 690.176H2299.06Z" fill="#680070"/>
<path d="M2842 628.5C2843.52 625.922 2845.03 623.392 2846.65 620.976C2845.06 623.392 2843.52 625.905 2842.03 628.5C2840.38 631.353 2838.85 634.255 2837.44 637.125C2838.82 634.272 2840.35 631.369 2842 628.5Z" fill="#680070"/>
<path d="M2438.82 532.759L2432.97 531.592V569.791C2416.14 549.037 2395.19 536.699 2370.12 532.759H2341.34C2315.11 537.072 2293.19 550.578 2275.57 573.309C2257.94 596.024 2249.15 622.646 2249.15 653.193C2249.15 686.463 2259.5 714.966 2280.25 738.654C2301 762.342 2326.28 774.161 2356.03 774.161C2385.78 774.161 2412.23 761.434 2432.98 735.995C2432.98 737.551 2433.16 739.918 2433.57 743.031C2433.94 845.257 2423.98 900.821 2403.6 909.852C2391.09 914.927 2376.98 911.408 2361.33 899.264C2345.66 887.137 2326.07 861.487 2302.59 822.315L2266.78 879.889C2276.54 899.475 2288.18 914.91 2301.7 926.292C2315.21 937.642 2329 944.565 2343.11 947.143C2357.22 949.656 2370.51 949.964 2383.06 948.002C2395.58 946.04 2407.71 942.311 2419.46 936.831C2428.09 932.94 2435.9 928.319 2442.97 923.033C2450.01 917.764 2455.97 911.862 2460.87 905.409C2465.77 898.956 2470.08 892.795 2473.79 886.894C2477.52 881.041 2480.44 873.793 2482.58 865.167C2484.75 856.542 2486.41 849.311 2487.57 843.442C2488.74 837.54 2489.65 829.514 2490.23 819.348C2490.82 809.182 2491.2 801.351 2491.4 795.871C2491.58 790.391 2491.67 782.155 2491.67 771.194V543.314L2438.82 532.727V532.759ZM2433.1 638.147C2433.1 638.357 2433.1 638.519 2433.06 638.73C2433.06 638.828 2433.06 638.973 2433.03 639.071C2433 639.687 2432.97 640.271 2432.88 640.903V641.178C2432.85 641.519 2432.82 641.908 2432.79 642.249C2432.79 642.313 2432.75 642.394 2432.75 642.459C2432.66 643.594 2432.54 644.729 2432.38 645.88C2432.32 646.61 2432.17 647.323 2432.07 648.021C2431.98 648.75 2431.83 649.431 2431.73 650.161C2431.31 652.431 2430.84 654.717 2430.26 656.987C2430.01 658.122 2429.71 659.256 2429.37 660.408C2428.09 664.964 2426.46 669.536 2424.5 674.124C2423.53 676.394 2422.51 678.68 2421.37 680.983C2420.24 683.252 2419.02 685.571 2417.73 687.841C2416.72 689.495 2415.7 691.084 2414.63 692.64C2414.56 692.786 2414.45 692.883 2414.38 693.013C2413.56 694.261 2412.7 695.429 2411.84 696.596C2411.69 696.774 2411.6 696.937 2411.47 697.115C2411.4 697.261 2411.29 697.391 2411.19 697.536C2410.09 699.012 2408.95 700.471 2407.82 701.914C2406.65 703.357 2405.47 704.816 2404.24 706.194C2403.04 707.605 2401.75 708.983 2400.47 710.296C2399.19 711.642 2397.9 712.923 2396.58 714.155C2395.33 715.355 2394.1 716.506 2392.82 717.609C2392.64 717.755 2392.48 717.917 2392.3 718.063C2391.02 719.198 2389.72 720.268 2388.38 721.338C2377.03 730.336 2365.76 735.849 2354.62 737.778C2343.45 739.74 2332.77 738.151 2322.6 733.093C2315.56 728.958 2310.05 723.332 2306.16 716.198C2302.27 709.064 2299.92 700.406 2299.12 690.208C2299.03 689.041 2298.95 687.906 2298.91 686.722C2298.73 682.685 2298.85 678.648 2299.22 674.627C2299.29 673.93 2299.35 673.249 2299.43 672.519C2299.5 671.822 2299.61 671.109 2299.71 670.411C2299.89 669.033 2300.13 667.623 2300.36 666.212C2301 662.564 2301.91 658.867 2303.01 655.187C2303.39 653.938 2303.78 652.739 2304.18 651.49C2304.67 650.08 2305.15 648.669 2305.74 647.242C2306.32 645.718 2306.94 644.178 2307.6 642.621C2307.67 642.524 2307.7 642.411 2307.75 642.281C2308.37 640.87 2309.03 639.46 2309.71 638.001C2309.74 637.903 2309.78 637.79 2309.86 637.693C2310.47 636.379 2311.17 635.034 2311.85 633.688C2312 633.445 2312.13 633.169 2312.27 632.893C2313.03 631.45 2313.86 629.959 2314.69 628.516C2326.62 607.762 2341.89 593.008 2360.51 584.188C2362.5 583.264 2364.48 582.388 2366.41 581.675C2367.03 581.399 2367.69 581.156 2368.31 580.945C2369.28 580.605 2370.24 580.297 2371.21 579.973C2372.34 579.6 2373.51 579.275 2374.66 579C2375.8 578.692 2376.93 578.416 2378.08 578.238C2379.22 577.995 2380.29 577.816 2381.39 577.686C2382.49 577.541 2383.63 577.443 2384.7 577.378C2385.8 577.314 2386.87 577.281 2387.97 577.281C2389.77 577.281 2391.52 577.378 2393.24 577.589C2393.49 577.622 2393.7 577.622 2393.94 577.686C2394.04 577.686 2394.12 577.687 2394.22 577.719C2394.95 577.784 2395.69 577.93 2396.39 578.059C2397.31 578.238 2398.22 578.432 2399.11 578.676C2400.94 579.162 2402.7 579.746 2404.46 580.475C2406.21 581.205 2407.92 582.032 2409.6 582.988C2413.12 584.983 2416.25 587.398 2418.97 590.187C2419.49 590.738 2420.01 591.29 2420.5 591.841C2420.77 592.116 2421.02 592.425 2421.26 592.733C2421.5 592.976 2421.68 593.219 2421.84 593.462C2422.33 594.013 2422.77 594.597 2423.16 595.181C2423.61 595.732 2423.98 596.316 2424.32 596.899C2424.36 596.964 2424.42 597.045 2424.45 597.11C2424.55 597.208 2424.63 597.353 2424.66 597.451C2425.15 598.148 2425.56 598.861 2425.98 599.623C2425.98 599.656 2426.01 599.656 2426.01 599.688C2426.53 600.547 2426.98 601.52 2427.42 602.444C2427.87 603.369 2428.25 604.341 2428.67 605.347C2428.67 605.379 2428.7 605.379 2428.7 605.412C2428.91 605.995 2429.16 606.579 2429.32 607.211C2429.56 607.795 2429.77 608.379 2429.93 608.962C2429.97 609.06 2430 609.173 2430.03 609.27C2430.21 609.822 2430.37 610.373 2430.52 610.957C2430.7 611.443 2430.83 611.962 2430.94 612.481C2431.12 613.097 2431.25 613.729 2431.39 614.378C2431.46 614.653 2431.52 614.929 2431.6 615.237C2431.81 616.129 2431.98 617.069 2432.12 618.026C2432.16 618.172 2432.15 618.301 2432.19 618.447C2432.4 619.615 2432.56 620.831 2432.71 622.063C2432.88 623.311 2432.98 624.576 2433.08 625.857C2433.39 629.926 2433.45 634.028 2433.21 638.13L2433.1 638.147Z" fill="#680070"/>
<path d="M2681.39 622.047C2681.39 633.785 2678.63 646.334 2673.15 659.646C2667.66 672.957 2660.42 684.89 2651.43 695.477C2651.43 695.477 2651.26 695.688 2650.94 696.061C2650.86 696.158 2650.78 696.239 2650.7 696.337C2650.49 696.612 2650.21 696.92 2649.89 697.277C2649.63 697.553 2649.38 697.828 2649.16 698.088C2648.88 698.38 2648.6 698.72 2648.3 699.044C2647.99 699.401 2647.65 699.758 2647.28 700.147C2639.48 708.61 2631.16 715.679 2622.35 721.322C2621.97 721.581 2621.58 721.808 2621.19 722.051C2620.93 721.873 2620.67 721.711 2620.41 721.516C2608.7 727.953 2594.91 731.763 2581.29 726.688C2581.25 726.688 2581.24 726.688 2581.21 726.656C2580.8 726.51 2580.39 726.348 2580.01 726.186C2575.27 724.159 2570.84 721.176 2566.74 717.203C2566.74 717.203 2566.69 717.155 2566.66 717.122C2558.36 708.675 2552.13 695.494 2549.15 676.637C2544.71 648.718 2547.37 608.314 2560.86 552.28C2564.44 537.315 2568.82 521.247 2574.02 503.996H2515.88C2511.57 520.842 2508.73 540.12 2507.37 561.846C2505.99 583.572 2506.87 607.082 2510 632.342C2513.14 657.586 2518.8 680.593 2527.04 701.347C2533.85 718.517 2543.9 733.336 2557.27 745.804C2576.54 764.741 2598.91 774.178 2624.38 774.178C2625.34 774.178 2626.28 774.178 2627.2 774.145C2649.4 773.561 2667.43 766.136 2681.36 751.868V774.178H2739.5V504.012H2681.36V622.079L2681.39 622.047Z" fill="#680070"/>
<path d="M2625.6 589.749L2622.6 582.664L2624.48 590.009C2624.85 589.911 2625.24 589.83 2625.61 589.749H2625.6Z" fill="#680070"/>
<path d="M2960.36 531.575V569.774C2943.53 549.021 2922.58 536.683 2897.51 532.743H2868.73C2842.53 537.056 2820.61 550.561 2802.99 573.293C2785.37 596.008 2776.55 622.63 2776.55 653.176C2776.55 686.446 2786.92 714.95 2807.68 738.638C2828.43 762.325 2853.67 774.145 2883.46 774.145C2913.24 774.145 2939.62 761.418 2960.37 735.979C2960.37 737.535 2960.58 739.902 2960.99 743.015C2961.36 845.241 2951.38 900.805 2930.99 909.836C2918.48 914.91 2904.37 911.392 2888.73 899.248C2873.08 887.121 2853.49 861.471 2829.98 822.299L2794.17 879.873C2803.96 899.459 2815.62 914.894 2829.13 926.276C2842.6 937.625 2856.43 944.549 2870.53 947.127C2884.64 949.64 2897.94 949.948 2910.45 947.986C2923 946.024 2935.13 942.295 2946.9 936.815C2955.48 932.924 2963.34 928.303 2970.38 923.017C2977.45 917.748 2983.38 911.846 2988.31 905.393C2993.17 898.94 2997.52 892.779 3001.2 886.877C3004.93 881.024 3007.85 873.777 3010.02 865.151C3012.16 856.526 3013.85 849.295 3015.01 843.425C3016.18 837.524 3017.04 829.498 3017.67 819.332C3018.22 809.166 3018.64 801.335 3018.84 795.855C3019.02 790.375 3019.11 782.138 3019.11 771.178V543.298L2960.37 531.543L2960.36 531.575ZM2945.08 687.808C2936.88 701.12 2927.09 712.291 2915.71 721.289C2904.36 730.288 2893.12 735.8 2881.95 737.73C2870.78 739.691 2860.13 738.103 2849.96 733.044C2835.85 724.808 2828.01 710.54 2826.45 690.159C2826.17 686.673 2826.11 683.236 2826.24 679.75C2826.27 678.956 2826.3 678.129 2826.39 677.334C2826.42 676.605 2826.45 675.956 2826.53 675.227V675.194C2826.53 675.016 2826.56 674.854 2826.56 674.675C2826.6 674.465 2826.6 674.221 2826.63 674.027C2826.63 673.962 2826.63 673.881 2826.66 673.816C2826.73 673.087 2826.79 672.373 2826.9 671.644C2827.03 670.476 2827.21 669.293 2827.42 668.125C2827.42 667.914 2827.46 667.671 2827.52 667.477C2827.62 666.747 2827.76 665.953 2827.93 665.207V665.142C2828.02 664.412 2828.2 663.699 2828.38 662.937C2828.41 662.791 2828.44 662.661 2828.48 662.515C2828.51 662.418 2828.51 662.272 2828.54 662.175C2828.72 661.251 2828.96 660.31 2829.19 659.354C2829.26 659.078 2829.32 658.802 2829.4 658.527C2829.64 657.668 2829.86 656.808 2830.13 655.949C2830.44 654.814 2830.78 653.679 2831.17 652.528C2831.93 650.258 2832.76 647.939 2833.65 645.67C2834.27 644.081 2834.96 642.492 2835.68 640.919C2836.23 639.638 2836.81 638.406 2837.43 637.125C2838.84 634.271 2840.36 631.369 2842.02 628.5C2843.49 625.922 2845.05 623.392 2846.64 620.976C2847.43 619.777 2848.26 618.593 2849.08 617.458C2850.33 615.707 2851.57 614.037 2852.88 612.383C2853.53 611.556 2854.19 610.762 2854.84 609.968C2855.49 609.173 2856.19 608.411 2856.83 607.665C2857.73 606.628 2858.67 605.639 2859.59 604.666C2860.51 603.693 2861.46 602.769 2862.41 601.845C2870.03 594.467 2878.51 588.566 2887.79 584.156C2891.43 582.437 2894.98 581.01 2898.47 579.956C2900.82 579.227 2903.09 578.643 2905.33 578.238C2906.43 577.995 2907.53 577.816 2908.64 577.686H2908.67C2909.77 577.541 2910.87 577.443 2911.94 577.378C2913.05 577.314 2914.12 577.281 2915.19 577.281C2916.16 577.281 2917.12 577.314 2918.04 577.378C2918.87 577.411 2919.66 577.476 2920.49 577.589C2920.76 577.622 2921.07 577.654 2921.35 577.686C2922.11 577.784 2922.87 577.93 2923.62 578.059C2924.38 578.205 2925.14 578.367 2925.89 578.578C2926.31 578.676 2926.68 578.789 2927.09 578.886C2927.09 578.886 2927.11 578.897 2927.15 578.919C2927.8 579.097 2928.43 579.292 2929.05 579.502C2929.7 579.713 2930.36 579.989 2931.01 580.232C2931.59 580.475 2932.18 580.686 2932.73 580.962C2932.91 581.026 2933.07 581.108 2933.25 581.205C2933.8 581.448 2934.35 581.724 2934.9 581.999C2935.52 582.307 2936.18 582.648 2936.8 583.005C2950.9 591.03 2958.72 605.314 2960.28 625.889C2961.87 646.432 2956.76 667.088 2945 687.841L2945.08 687.808Z" fill="#680070"/>
<path d="M3208.8 503.98V622.047C3208.8 633.785 3206.06 646.334 3200.58 659.646C3195.08 672.957 3187.83 684.89 3178.83 695.477C3169.84 706.049 3160.14 714.658 3149.76 721.322C3149.44 721.532 3149.13 721.743 3148.79 721.938C3148.6 721.808 3148.38 721.662 3148.19 721.516C3136.48 727.953 3122.69 731.763 3109.07 726.688C3109.03 726.688 3109.02 726.688 3108.99 726.656C3108.58 726.51 3108.18 726.348 3107.79 726.186C3103.05 724.159 3098.63 721.176 3094.52 717.203C3094.52 717.203 3094.48 717.155 3094.44 717.122C3086.14 708.675 3079.92 695.494 3076.93 676.637C3076.74 675.405 3076.54 674.14 3076.38 672.86C3072.75 645.118 3075.75 605.833 3088.64 552.28C3088.67 552.15 3088.7 552.021 3088.74 551.891C3092.3 537.056 3096.65 521.102 3101.82 503.996H3043.68C3039.37 520.842 3036.53 540.12 3035.17 561.846C3033.79 583.572 3034.66 607.082 3037.79 632.342C3040.4 653.241 3044.73 672.616 3050.81 690.435C3053.44 699.255 3057.07 707.751 3061.69 715.89C3061.69 715.923 3061.72 715.955 3061.74 715.971C3065.89 723.51 3070.82 730.515 3076.53 736.968C3076.66 737.13 3076.8 737.308 3076.95 737.47C3097.9 761.953 3122.85 774.178 3151.82 774.178C3152.81 774.178 3153.77 774.178 3154.72 774.129C3154.82 774.129 3154.92 774.129 3155.02 774.129C3177.02 773.545 3194.93 766.249 3208.8 752.225V774.161H3266.95V503.996H3208.8V503.98Z" fill="#680070"/>
<path d="M2566.76 717.171C2570.86 721.127 2575.29 724.127 2580.02 726.153C2575.21 724.175 2570.75 721.208 2566.76 717.171Z" fill="#680070"/>
<path d="M2650.94 696.045C2650.44 696.645 2649.55 697.682 2648.31 699.028C2649.19 698.055 2650.06 697.066 2650.94 696.045Z" fill="#680070"/>
<path d="M2198.28 307.586C2187.92 305.738 2187.74 316.796 2187.74 316.796C2187.74 316.796 2188.37 383.725 2187.74 389.87C2187.12 395.998 2190.82 403.392 2198.28 401.543C2205.72 399.695 2206.77 392.918 2206.77 392.918L2206.16 352.4H2225.19V492.42L2224.67 492.582L2171.47 509.136L2169.56 482.092L2167.92 356.616L2167.68 338.278L2167.45 321.692C2167.45 321.692 2157.01 277.494 2197.55 276.246C2238.08 275.03 2229.47 321.692 2229.47 321.692H2206.14C2204.92 310.634 2208.59 309.418 2198.24 307.57L2198.28 307.586Z" fill="#680070"/>
<path d="M2223.97 515.427L2223.41 524.523L2222.53 538.985L2222.19 544.481L2221.62 553.642L2220.97 564.359L2197.27 949.283L2176.05 572.774L2175.76 567.537L2175.56 564.051L2174.43 544.125L2174.1 538.336L2173.61 529.549L2223.97 515.427Z" fill="#680070"/>
<path d="M2174.1 538.336L2223.41 524.523L2222.53 538.985L2222.19 544.481L2221.62 553.642L2191.11 566.451L2176.05 572.774L2175.56 572.985L2173.94 544.173L2173.91 543.784L2173.61 538.482L2174.1 538.336Z" fill="#680070"/>
<path d="M2223.97 524.344L2223.76 527.7C2223.8 526.647 2223.83 525.544 2223.86 524.377L2223.97 524.344Z" fill="#680070"/>
<path d="M2223.97 515.427L2223.41 524.523L2222.53 538.985L2222.19 544.481L2221.62 553.642L2220.97 564.359L2191.11 566.451L2175.76 567.537L2175.56 564.051L2174.43 544.125L2174.1 538.336L2173.61 529.549L2223.97 515.427Z" fill="#680070"/>
<path d="M2225.21 466.543C2225.21 469.883 2224.96 480.487 2224.69 492.582C2224.41 503.364 2224.1 515.313 2223.88 524.377L2223.42 524.506L2222.55 538.969L2174.44 544.108L2173.96 544.173L2173.92 543.784L2171.49 509.136L2169.58 482.092C2169.58 482.092 2225.21 457.431 2225.21 466.543Z" fill="#680070"/>
<path d="M2206.06 330.48V341.213C2206.06 341.213 2249.38 341.618 2262.42 382.249C2275.45 422.88 2237.41 450.476 2237.41 450.476C2237.41 450.476 2291.07 417.076 2259.98 362.647C2259.98 362.647 2241.34 336.884 2206.07 330.48H2206.06Z" fill="#680070"/>
<path d="M2225.76 488.983L2217.54 495.873C2217.54 495.873 2245.04 529.354 2222.27 565.413C2199.49 601.488 2153.92 590.057 2153.92 590.057C2153.92 590.057 2213.99 609.741 2235.73 550.967C2235.73 550.967 2243.51 520.129 2225.76 488.983Z" fill="#680070"/>
<path d="M2159.53 330.48C2159.53 330.48 2082.82 360.815 2169.58 412.958L2172.76 407.607V403.684C2172.76 403.684 2136.68 385.816 2135.25 365.468C2133.83 345.104 2167.68 335.83 2167.68 335.83L2169.59 326.897L2159.54 330.496L2159.53 330.48Z" fill="#680070"/>
<path d="M3227.75 459.361C3227.6 459.117 3227.33 459.215 3226.96 459.604C3226.44 459.847 3226.31 459.879 3226.5 459.669C3226.71 459.458 3226.57 459.361 3226.13 459.361C3225.16 459.361 3225.48 459.053 3227.02 458.469C3227.6 458.404 3227.75 458.193 3227.51 457.853C3227.23 457.512 3227.23 457.269 3227.44 457.058C3227.78 457.156 3227.75 457.026 3227.3 456.637C3226.87 456.264 3226.84 456.118 3227.2 456.215C3227.57 456.312 3227.57 456.069 3227.26 455.453C3226.68 454.659 3226.4 454.383 3226.47 454.659C3226.57 454.934 3226.37 455.08 3225.89 455.08C3225.54 454.934 3225.4 454.837 3225.58 454.659C3225.72 454.513 3225.61 454.383 3225.24 454.286C3224.62 453.978 3224.59 453.767 3225.17 453.702C3225.72 453.605 3225.17 453.426 3223.52 453.216C3222.38 453.151 3221.8 453.151 3221.69 453.248C3221.65 453.491 3221.44 453.524 3221.04 453.345C3220.62 453.135 3220.24 452.891 3219.84 452.583C3219.42 452.275 3219.04 452.065 3218.7 451.967C3218.33 451.87 3218.15 452 3218.22 452.421C3218.15 453.426 3217.66 453.67 3216.77 453.151C3216.5 452.94 3216.25 452.908 3216.01 453.005C3215.77 453.151 3215.77 453.313 3216.04 453.524C3216.38 453.621 3216.5 453.767 3216.29 453.978C3216.08 454.188 3215.91 454.124 3215.74 453.799C3215.74 453.556 3215.28 453.345 3214.36 453.216C3213.47 453.07 3213.19 452.94 3213.56 452.794C3213.77 452.583 3213.66 452.486 3213.29 452.519C3212.91 452.519 3212.53 452.551 3212.15 452.551C3211.81 452.583 3211.5 452.551 3211.33 452.519C3211.15 452.454 3211.29 452.308 3211.78 452.065C3212.4 451.724 3212.4 451.481 3211.84 451.302C3211.15 450.849 3210.5 450.573 3209.95 450.54C3209.36 450.508 3207.65 450.638 3204.71 450.913C3202.81 451.157 3201.44 451.254 3200.58 451.254C3199.72 451.254 3198.99 451.708 3198.37 452.535C3198.61 453.264 3198.4 453.637 3197.72 453.702C3197.07 453.734 3196.65 453.88 3196.44 454.075C3196.78 454.172 3196.81 454.383 3196.44 454.772C3196.1 455.113 3195.71 455.226 3195.37 455.113C3195.16 455.048 3195 455.113 3194.79 455.323C3194.85 455.745 3194.61 455.842 3194.14 455.599C3193.62 455.388 3193.38 455.567 3193.31 456.053C3192.55 456.329 3191.76 456.912 3191.01 457.772C3190.25 458.631 3189.45 459.523 3188.63 460.431C3187.8 461.355 3187.1 462.263 3186.6 463.122C3186.05 463.981 3185.81 464.598 3185.87 465.019C3185.32 466.024 3184.67 467.046 3183.94 468.116C3183.21 469.154 3182.29 470.256 3181.15 471.326C3180.15 472.331 3179.71 472.85 3179.9 472.883C3180.08 472.947 3180.15 473.223 3180.11 473.71C3179.97 474.05 3179.84 474.082 3179.69 473.774C3179.73 473.288 3179.45 473.32 3178.83 473.92C3178.41 474.569 3178.28 475.055 3178.46 475.331C3178.61 475.639 3178.19 476.158 3177.18 476.92C3176.39 477.682 3176.14 478.022 3176.56 477.893C3177.15 477.552 3177.15 477.682 3176.6 478.379C3176.01 479.027 3175.28 479.903 3174.36 480.892C3173.43 481.897 3172.53 482.886 3171.67 483.859C3170.78 484.832 3170.32 485.416 3170.32 485.659C3169.87 486.551 3168.94 487.621 3167.53 488.902C3166.12 490.15 3164.95 491.204 3164.05 492.112C3162.15 494.625 3160.95 495.808 3160.4 495.663C3160.3 495.484 3160.22 495.452 3160.19 495.484C3160.12 495.549 3160.16 495.63 3160.22 495.792C3160.56 496.133 3160.59 496.587 3160.25 497.138C3159.95 497.689 3159.52 497.965 3159.09 497.965C3158.6 497.932 3158.11 498.305 3157.56 499.067C3157.42 499.651 3157.35 500.073 3157.38 500.235C3157.42 500.446 3157.24 500.754 3156.83 501.126C3156.35 501.37 3156.25 501.548 3156.52 501.613C3156.8 501.71 3156.86 501.921 3156.77 502.261C3156.83 502.407 3156.8 502.505 3156.67 502.537C3156.52 502.537 3156.43 502.472 3156.33 502.326C3155.96 502.229 3155.75 502.261 3155.6 502.505C3155.5 502.715 3155.42 503.023 3155.39 503.396C3155.36 503.769 3155.36 504.158 3155.32 504.531C3155.29 504.904 3155.23 505.147 3155.11 505.228C3154.66 506.12 3154.35 506.85 3154.19 507.369C3153.98 507.887 3153.88 508.293 3153.82 508.617C3153.75 508.925 3153.67 508.86 3153.61 508.439C3153.43 508.131 3153.26 508.098 3153.05 508.293C3153.02 508.536 3153.09 509.12 3153.2 510.044C3153.35 510.968 3153.38 511.568 3153.35 511.844C3153.31 512.298 3153.25 512.541 3153.17 512.541C3153.07 512.508 3152.99 512.395 3152.96 512.2C3152.92 512.006 3152.89 511.827 3152.78 511.681C3152.71 511.503 3152.54 511.681 3152.32 512.135C3152.39 512.508 3152.15 512.93 3151.68 513.27C3151.19 513.643 3151.3 513.919 3152.02 514.162C3152.57 514.308 3152.57 514.438 3151.98 514.503C3151.25 514.535 3150.98 514.989 3151.19 515.816C3151.4 516.643 3151.89 517.064 3152.63 517.016C3153.28 517.324 3153.88 517.324 3154.38 517.048C3154.94 516.74 3154.87 516.708 3154.17 516.87C3153.9 516.935 3153.59 516.902 3153.2 516.805C3153.41 516.594 3153.93 516.529 3154.72 516.562C3155.49 516.594 3155.65 516.74 3155.18 516.983L3154.87 517.291L3155.15 517.356C3155.52 517.453 3155.6 517.599 3155.39 517.81C3155.08 518.118 3155.49 518.086 3156.59 517.713C3157.69 517.34 3158.34 517.259 3158.52 517.567C3159.13 517.875 3159.8 517.843 3160.48 517.389C3161.18 516.935 3161.55 517.048 3161.58 517.697L3161.89 517.421C3162.72 516.627 3163.37 516.318 3163.92 516.448C3164.1 516.513 3164.4 516.351 3164.81 515.962L3165.57 515.2C3165.6 514.957 3165.64 514.778 3165.75 514.681C3166.06 514.405 3166.27 514.308 3166.33 514.47C3166.61 514.681 3166.51 514.811 3166.09 514.892C3165.67 514.973 3165.64 515.038 3165.99 515.135C3166.37 515.232 3166.82 515.135 3167.31 514.762C3167.79 514.389 3168.13 514.34 3168.31 514.665C3168.59 514.875 3168.65 514.908 3168.59 514.762C3168.31 514.551 3168.62 514.065 3169.56 513.319C3170.45 512.525 3170.73 512.119 3170.35 512.006C3169.98 511.908 3169.9 511.73 3170.11 511.552C3170.32 511.341 3170.48 511.341 3170.66 511.519C3170.84 511.698 3171 511.617 3171.12 511.244L3171.57 510.822C3171.75 511.098 3172.02 511.163 3172.36 510.919C3172.7 510.709 3172.64 510.611 3172.15 510.579C3171.63 510.157 3171.81 509.849 3172.67 509.574C3173.53 509.331 3174.02 509.022 3174.15 508.682C3174.08 508.26 3174.33 508.163 3174.88 508.309C3175.74 507.936 3176.4 507.417 3176.81 506.753C3177.26 506.136 3178.19 505.31 3179.71 504.337C3181.09 503.202 3182.01 502.44 3182.5 501.986C3182.95 501.532 3183.2 501.191 3183.2 500.948C3183.16 500.3 3183.34 500.121 3183.68 500.494C3183.92 500.948 3184.05 500.916 3184.1 500.429C3184.2 500.089 3184.48 499.878 3184.93 499.813C3185.35 499.748 3185.85 499.392 3186.49 498.808C3187.01 498.322 3187.41 497.949 3187.77 497.738C3188.11 497.527 3188.35 497.365 3188.46 497.251C3188.53 497.43 3188.77 497.284 3189.19 496.911L3192.1 494.09C3192.52 493.717 3192.74 493.571 3192.83 493.749C3193 494.057 3193.2 494.122 3193.44 494.025C3193.69 493.879 3193.96 493.685 3194.27 493.409C3194.54 493.101 3194.85 492.793 3195.1 492.404C3195.37 492.031 3195.65 491.82 3195.92 491.788C3196.41 491.544 3197.09 491.058 3197.95 490.345C3198.78 489.647 3199.57 488.934 3200.3 488.237L3202.2 486.405C3202.75 485.853 3202.89 485.61 3202.62 485.643C3202.41 485.61 3202.52 485.497 3202.93 485.367C3203.02 485.27 3203.48 484.945 3204.27 484.394C3205.07 483.875 3205.86 483.292 3206.72 482.708C3207.55 482.124 3208.28 481.573 3208.83 481.022C3209.38 480.471 3209.53 480.13 3209.28 479.919C3208.7 479.984 3208.8 479.887 3209.59 479.611C3211.49 477.99 3212.83 476.92 3213.63 476.369C3214.42 475.85 3215.15 475.266 3215.8 474.617C3216.5 473.969 3217.36 473.061 3218.49 471.861C3219.63 470.661 3221.39 468.651 3223.76 465.895C3224.77 464.889 3225.17 463.965 3225.04 463.106C3224.86 462.214 3225.32 461.63 3226.36 461.274C3226.57 461.339 3226.78 461.241 3227 460.998C3227.28 460.722 3227.49 460.447 3227.73 460.139C3227.94 459.831 3227.98 459.555 3227.88 459.312L3227.75 459.361ZM3157.5 515.767C3157.5 516.043 3157.12 516.01 3156.43 515.767C3155.78 515.492 3155.6 515.524 3155.94 515.913C3156.28 516.254 3156.22 516.432 3155.76 516.432C3155.28 516.432 3155 516.335 3154.94 516.189C3154.42 515.54 3154.79 515.151 3156.07 515.086C3157.35 515.021 3157.79 515.232 3157.48 515.783L3157.5 515.767ZM3158.42 517.324C3157.72 517.048 3157.66 516.675 3158.18 516.189C3158.76 515.605 3158.94 515.605 3158.66 516.221C3158.39 516.837 3158.45 517.145 3158.94 517.145C3159.28 517.518 3159.12 517.567 3158.42 517.324ZM3159 498.37C3159.1 498.273 3159.31 498.224 3159.62 498.273C3159.96 498.273 3160.04 498.419 3159.83 498.613C3159.52 498.646 3159.28 498.646 3159.1 498.581C3158.92 498.549 3158.89 498.435 3159 498.37ZM3160.01 516.156C3159.8 516.335 3159.59 516.464 3159.39 516.529C3159.22 516.594 3159.18 516.594 3159.25 516.497C3159.1 516.189 3159.39 515.946 3160.17 515.8C3160.93 515.621 3160.87 515.735 3159.99 516.14L3160.01 516.156ZM3187.56 463.754C3187.46 464.306 3187.41 464.679 3187.38 464.954C3187.13 465.651 3187.04 465.716 3187.04 465.133C3187.01 464.549 3187.1 464.16 3187.31 463.965C3187.56 463.268 3187.65 463.203 3187.56 463.754ZM3188.29 462.717C3187.7 462.782 3187.59 462.652 3187.95 462.344C3188.32 461.971 3188.53 461.89 3188.59 462.036C3188.69 462.182 3188.56 462.409 3188.29 462.733V462.717ZM3190.56 462.23C3190.35 462.409 3190.1 462.474 3189.83 462.409C3189.55 462.311 3189.52 462.166 3189.73 461.987C3189.94 461.776 3190.18 461.712 3190.46 461.809C3190.73 461.874 3190.77 462.02 3190.56 462.23ZM3200.9 486.599C3200.59 486.875 3200.41 487.086 3200.41 487.215C3200.41 487.313 3200.45 487.426 3200.56 487.426C3200.62 487.459 3200.74 487.523 3200.77 487.604C3200.77 487.702 3200.49 487.912 3199.94 488.221C3199.42 488.464 3199.3 488.156 3199.46 487.329C3200.01 486.048 3200.56 485.529 3201.11 485.675C3201.48 485.821 3201.42 486.097 3200.9 486.599ZM3205.73 482.594L3205.12 483.178C3204.56 483.275 3204.56 483.146 3205.15 482.838C3205.73 482.497 3205.94 482.416 3205.73 482.594ZM3208.83 480.454C3208.52 480.876 3208.21 481.103 3207.94 481.151C3207.01 481.119 3207.05 480.876 3208 480.389C3208.86 480.017 3209.14 480.017 3208.83 480.454ZM3214.55 474.05C3214.73 474.358 3214.41 474.634 3213.66 474.942C3213.45 475.12 3213.35 475.153 3213.42 474.974C3213.48 474.796 3213.63 474.601 3213.84 474.423C3214.05 474.212 3214.26 474.05 3214.49 473.936C3214.73 473.791 3214.76 473.839 3214.55 474.034V474.05ZM3224.62 462.198C3224.52 462.538 3224.41 462.538 3224.28 462.198C3224.18 461.857 3224.31 461.712 3224.65 461.825C3224.86 461.89 3224.83 462.003 3224.62 462.198ZM3225.72 460.787C3225.24 461.306 3224.93 461.371 3224.8 460.998C3224.7 460.658 3224.9 460.447 3225.5 460.35C3226.47 459.863 3226.57 460.009 3225.74 460.804L3225.72 460.787Z" fill="#680070"/>
<path d="M2681.66 458.291C2681.57 458.047 2681.29 458.112 2680.87 458.534C2680.38 458.777 2680.25 458.809 2680.45 458.599C2680.66 458.388 2680.51 458.291 2680.04 458.291C2679.12 458.258 2679.43 457.982 2680.97 457.399C2681.52 457.334 2681.7 457.091 2681.42 456.783C2681.18 456.442 2681.15 456.199 2681.36 455.988C2681.73 456.085 2681.7 455.956 2681.26 455.567C2680.8 455.194 2680.77 455.048 2681.16 455.145C2681.5 455.242 2681.53 454.999 2681.23 454.383C2680.61 453.556 2680.37 453.313 2680.43 453.589C2680.5 453.864 2680.29 454.01 2679.85 453.962C2679.48 453.864 2679.36 453.751 2679.51 453.589C2679.69 453.443 2679.54 453.313 2679.2 453.216C2678.58 452.908 2678.55 452.697 2679.1 452.632C2679.69 452.535 2679.13 452.356 2677.45 452.146C2676.35 452.048 2675.73 452.081 2675.62 452.178C2675.58 452.421 2675.41 452.454 2675 452.275C2674.58 452.065 2674.17 451.821 2673.75 451.513C2673.38 451.205 2672.99 450.994 2672.62 450.897C2672.24 450.8 2672.1 450.93 2672.16 451.351C2672.1 452.356 2671.61 452.6 2670.69 452.081C2670.44 451.87 2670.17 451.838 2669.93 451.935C2669.68 452.081 2669.71 452.21 2669.96 452.421C2670.33 452.567 2670.41 452.697 2670.2 452.908C2669.99 453.086 2669.83 453.054 2669.65 452.729C2669.68 452.486 2669.23 452.275 2668.3 452.146C2667.38 452 2667.1 451.838 2667.48 451.692C2667.69 451.513 2667.61 451.416 2667.23 451.448C2666.86 451.448 2666.47 451.481 2666.1 451.481C2665.73 451.513 2665.45 451.481 2665.27 451.448C2665.06 451.384 2665.24 451.238 2665.73 450.994C2666.31 450.654 2666.34 450.411 2665.79 450.232C2665.06 449.746 2664.41 449.503 2663.86 449.47C2663.31 449.438 2661.56 449.568 2658.62 449.843C2656.73 450.054 2655.35 450.184 2654.52 450.184C2653.7 450.184 2652.93 450.605 2652.32 451.465C2652.53 452.162 2652.32 452.567 2651.67 452.6C2651.02 452.664 2650.57 452.81 2650.36 453.021C2650.73 453.118 2650.73 453.329 2650.39 453.67C2650.02 454.01 2649.66 454.156 2649.29 454.043C2649.11 453.978 2648.91 454.043 2648.7 454.253C2648.77 454.675 2648.57 454.74 2648.05 454.529C2647.57 454.318 2647.29 454.464 2647.26 454.983C2646.5 455.259 2645.7 455.842 2644.96 456.702C2644.16 457.561 2643.37 458.453 2642.54 459.361C2641.71 460.285 2641.07 461.16 2640.51 462.052C2640 462.911 2639.72 463.527 2639.78 463.949C2639.23 464.954 2638.62 465.976 2637.86 467.013C2637.13 468.083 2636.2 469.154 2635.1 470.256C2634.06 471.229 2633.66 471.731 2633.82 471.813C2634.03 471.877 2634.09 472.153 2634.06 472.639C2633.93 472.98 2633.79 473.012 2633.61 472.704C2633.64 472.218 2633.36 472.25 2632.75 472.85C2632.33 473.499 2632.2 473.953 2632.38 474.261C2632.55 474.569 2632.13 475.088 2631.13 475.817C2630.3 476.612 2630.09 476.952 2630.48 476.79C2631.09 476.482 2631.09 476.612 2630.51 477.309C2629.96 477.957 2629.2 478.784 2628.27 479.822C2627.35 480.827 2626.44 481.784 2625.58 482.789C2624.72 483.713 2624.27 484.346 2624.24 484.589C2623.78 485.481 2622.86 486.551 2621.45 487.831C2620.07 489.08 2618.9 490.134 2617.96 491.042C2616.06 493.555 2614.86 494.738 2614.31 494.56C2614.25 494.414 2614.17 494.349 2614.1 494.414C2614.07 494.447 2614.07 494.56 2614.17 494.722C2614.51 495.063 2614.51 495.517 2614.2 496.068C2613.86 496.619 2613.47 496.895 2613 496.862C2612.55 496.862 2612.03 497.235 2611.52 497.965C2611.38 498.581 2611.31 498.97 2611.35 499.165C2611.38 499.359 2611.22 499.684 2610.79 500.056C2610.28 500.3 2610.18 500.478 2610.45 500.543C2610.73 500.608 2610.83 500.851 2610.7 501.191C2610.76 501.337 2610.76 501.435 2610.6 501.435C2610.45 501.467 2610.36 501.402 2610.29 501.256C2609.92 501.159 2609.68 501.191 2609.56 501.435C2609.47 501.645 2609.38 501.953 2609.35 502.326C2609.32 502.699 2609.29 503.088 2609.25 503.461C2609.22 503.802 2609.16 504.045 2609.04 504.158C2608.64 505.05 2608.28 505.78 2608.12 506.299C2607.94 506.817 2607.81 507.223 2607.75 507.547C2607.68 507.823 2607.6 507.79 2607.54 507.369C2607.39 507.061 2607.2 507.028 2606.98 507.223C2606.98 507.466 2607.02 508.05 2607.16 508.974C2607.26 509.898 2607.29 510.498 2607.29 510.725C2607.26 511.244 2607.2 511.487 2607.08 511.455C2606.98 511.422 2606.9 511.309 2606.9 511.114C2606.87 510.903 2606.81 510.741 2606.73 510.595C2606.63 510.417 2606.48 510.563 2606.27 511.049C2606.3 511.422 2606.09 511.811 2605.62 512.184C2605.1 512.557 2605.22 512.833 2605.96 513.043C2606.51 513.222 2606.51 513.351 2605.93 513.416C2605.17 513.449 2604.89 513.903 2605.14 514.73C2605.35 515.556 2605.83 515.978 2606.58 515.929C2607.2 516.237 2607.78 516.237 2608.33 515.962C2608.85 515.654 2608.78 515.621 2608.12 515.783C2607.84 515.816 2607.5 515.816 2607.15 515.686C2607.36 515.508 2607.84 515.443 2608.62 515.475C2609.42 515.508 2609.6 515.654 2609.08 515.897L2608.8 516.205L2609.04 516.27C2609.42 516.367 2609.53 516.513 2609.32 516.724C2609.01 517.032 2609.42 516.967 2610.52 516.578C2611.62 516.189 2612.24 516.156 2612.42 516.481C2613.03 516.789 2613.73 516.724 2614.41 516.302C2615.11 515.848 2615.45 515.962 2615.51 516.61L2615.79 516.302C2616.62 515.54 2617.31 515.232 2617.86 515.378C2618.04 515.443 2618.35 515.281 2618.72 514.859L2619.49 514.13C2619.52 513.887 2619.58 513.708 2619.7 513.611C2620 513.303 2620.18 513.238 2620.28 513.4C2620.52 513.611 2620.46 513.741 2620.04 513.822C2619.58 513.854 2619.55 513.968 2619.94 514.065C2620.28 514.162 2620.73 514.032 2621.25 513.692C2621.74 513.319 2622.08 513.27 2622.23 513.595C2622.5 513.805 2622.6 513.838 2622.5 513.66C2622.26 513.449 2622.57 512.962 2623.47 512.217C2624.37 511.455 2624.64 511.049 2624.3 510.936C2623.93 510.79 2623.85 510.66 2624.03 510.449C2624.24 510.271 2624.45 510.238 2624.61 510.449C2624.79 510.628 2624.92 510.514 2625.06 510.174L2625.52 509.72C2625.7 510.028 2625.94 510.06 2626.28 509.866C2626.62 509.655 2626.55 509.525 2626.1 509.525C2625.55 509.104 2625.73 508.763 2626.59 508.52C2627.45 508.244 2627.97 507.969 2628.06 507.628C2628 507.207 2628.24 507.077 2628.79 507.255C2629.68 506.882 2630.32 506.363 2630.75 505.699C2631.18 505.083 2632.13 504.256 2633.62 503.283C2635.03 502.148 2635.97 501.353 2636.41 500.932C2636.87 500.478 2637.11 500.137 2637.14 499.862C2637.11 499.213 2637.24 499.067 2637.6 499.44C2637.84 499.894 2637.97 499.862 2638.02 499.375C2638.15 499.003 2638.42 498.792 2638.84 498.727C2639.3 498.694 2639.82 498.354 2640.4 497.754C2640.92 497.235 2641.37 496.895 2641.71 496.684C2642.05 496.441 2642.27 496.311 2642.36 496.198C2642.46 496.344 2642.7 496.23 2643.09 495.857L2645.99 493.036C2646.42 492.663 2646.64 492.517 2646.76 492.696C2646.9 492.971 2647.1 493.068 2647.34 492.971C2647.58 492.825 2647.86 492.631 2648.17 492.355C2648.48 492.047 2648.75 491.706 2649.03 491.35C2649.27 490.977 2649.58 490.766 2649.85 490.734C2650.34 490.458 2650.99 490.004 2651.85 489.291C2652.71 488.577 2653.5 487.88 2654.2 487.183L2656.1 485.351C2656.68 484.8 2656.83 484.556 2656.5 484.589C2656.32 484.524 2656.44 484.443 2656.81 484.281C2656.91 484.216 2657.36 483.859 2658.15 483.357C2658.95 482.805 2659.78 482.254 2660.6 481.67C2661.46 481.087 2662.16 480.535 2662.71 479.984C2663.29 479.433 2663.44 479.06 2663.16 478.849C2663.03 478.882 2662.92 478.882 2662.86 478.882C2662.92 478.784 2663.13 478.703 2663.47 478.574C2665.37 476.952 2666.75 475.882 2667.54 475.331C2668.34 474.812 2669.07 474.196 2669.71 473.58C2670.36 472.931 2671.27 472.023 2672.41 470.824C2673.51 469.575 2675.26 467.613 2677.64 464.857C2678.68 463.852 2679.09 462.928 2678.92 462.068C2678.75 461.177 2679.2 460.544 2680.27 460.236C2680.45 460.269 2680.67 460.171 2680.92 459.928C2681.16 459.685 2681.4 459.409 2681.62 459.101C2681.86 458.761 2681.89 458.485 2681.76 458.274L2681.66 458.291ZM2611.44 514.697C2611.41 514.94 2611.07 514.94 2610.37 514.697C2609.68 514.422 2609.51 514.454 2609.85 514.843C2610.2 515.184 2610.16 515.362 2609.68 515.362C2609.19 515.329 2608.95 515.265 2608.85 515.119C2608.33 514.47 2608.7 514.081 2609.98 514.016C2611.27 513.919 2611.74 514.162 2611.43 514.713L2611.44 514.697ZM2612.37 516.221C2611.67 515.978 2611.57 515.605 2612.09 515.086C2612.71 514.503 2612.85 514.535 2612.58 515.151C2612.3 515.767 2612.4 516.075 2612.85 516.075C2613.19 516.448 2613.03 516.497 2612.37 516.221ZM2612.92 497.268C2613.02 497.17 2613.23 497.122 2613.57 497.17C2613.88 497.203 2613.94 497.349 2613.75 497.511C2613.47 497.576 2613.23 497.543 2613.05 497.511C2612.84 497.446 2612.81 497.365 2612.92 497.268ZM2613.92 515.054C2613.71 515.265 2613.55 515.394 2613.34 515.475C2613.16 515.54 2613.1 515.54 2613.21 515.443C2613.03 515.135 2613.34 514.892 2614.1 514.746C2614.86 514.567 2614.83 514.681 2613.92 515.054ZM2641.47 462.684C2641.41 463.236 2641.34 463.609 2641.34 463.852C2641.07 464.581 2640.97 464.614 2640.97 464.063C2640.97 463.479 2641.07 463.09 2641.28 462.895C2641.42 462.555 2641.49 462.344 2641.52 462.344C2641.52 462.409 2641.52 462.522 2641.49 462.684H2641.47ZM2642.2 461.614C2641.62 461.712 2641.55 461.582 2641.89 461.241C2642.23 460.901 2642.44 460.787 2642.54 460.966C2642.61 461.112 2642.51 461.339 2642.2 461.614ZM2644.5 461.128C2644.29 461.339 2644.05 461.403 2643.77 461.306C2643.5 461.241 2643.47 461.095 2643.68 460.885C2643.89 460.706 2644.1 460.641 2644.37 460.706C2644.65 460.804 2644.71 460.95 2644.52 461.128H2644.5ZM2654.81 485.497C2654.54 485.805 2654.36 486.016 2654.36 486.145C2654.36 486.243 2654.39 486.356 2654.46 486.356C2654.56 486.388 2654.64 486.421 2654.67 486.534C2654.67 486.632 2654.43 486.842 2653.84 487.15C2653.36 487.394 2653.19 487.086 2653.36 486.226C2653.94 484.978 2654.49 484.475 2655.04 484.605C2655.38 484.702 2655.32 485.027 2654.8 485.497H2654.81ZM2659.65 481.524L2659.06 482.108C2658.48 482.205 2658.48 482.076 2659.06 481.735C2659.4 481.524 2659.61 481.46 2659.68 481.46C2659.68 481.46 2659.68 481.492 2659.65 481.524ZM2662.79 479.352C2662.48 479.806 2662.18 480 2661.9 480.081C2660.98 480.049 2660.98 479.806 2661.96 479.319C2662.82 478.946 2663.1 478.946 2662.79 479.352ZM2668.51 472.98C2668.66 473.288 2668.34 473.564 2667.59 473.872C2667.38 474.05 2667.32 474.082 2667.38 473.872C2667.44 473.693 2667.56 473.531 2667.75 473.32C2667.96 473.142 2668.21 472.98 2668.45 472.866C2668.69 472.72 2668.73 472.769 2668.51 472.964V472.98ZM2678.58 461.128C2678.49 461.468 2678.34 461.468 2678.24 461.128C2678.1 460.787 2678.24 460.641 2678.62 460.755C2678.79 460.82 2678.79 460.933 2678.58 461.128ZM2679.69 459.717C2679.17 460.204 2678.86 460.269 2678.76 459.928C2678.63 459.588 2678.86 459.344 2679.46 459.28C2680.43 458.793 2680.5 458.939 2679.7 459.733L2679.69 459.717Z" fill="#680070"/>
<path d="M1847.52 512.8C1846 513.53 1844.49 514.243 1842.9 515.005C1808.43 531.9 1780.03 559.609 1757.65 598.229C1746.51 617.361 1738.52 636.428 1733.59 655.463C1728.6 636.087 1726.8 616.777 1728.18 597.516C1730.9 559.284 1745.56 532.564 1772.1 517.389C1794.44 504.629 1819.57 503.088 1847.52 512.8Z" fill="#680070"/>
<path d="M1978.37 717.43C1975.58 755.662 1960.92 782.56 1934.38 798.028C1909.07 812.814 1880.15 812.928 1847.61 798.206C1852.84 796.341 1858.16 794.169 1863.61 791.558C1898.08 775.004 1926.48 747.425 1948.91 708.854C1959.25 691.035 1966.9 673.281 1971.87 655.527C1977.69 676.216 1979.86 696.856 1978.38 717.447L1978.37 717.43Z" fill="#680070"/>
<path d="M750.23 686.933C748.754 685.62 747.263 684.355 745.706 683.106C745.706 683.106 745.641 683.074 745.609 683.042C746.744 683.252 747.846 683.463 748.981 683.658L750.23 686.933Z" fill="#680070"/>
<path d="M867.55 705.368L865.41 699.887L653.079 147.284H598.293L428.441 584.35L414.027 621.414L317.087 870.907H371.905L465.132 631.207L465.991 629.035C513.092 630.283 558.068 639.411 601.033 656.435C629.099 667.509 656.256 681.988 682.571 699.839C749.046 744.961 795.368 802.016 821.569 870.907H931.172L867.566 705.351L867.55 705.368ZM745.722 683.09C745.722 683.09 745.657 683.058 745.625 683.025C743.631 681.339 741.588 679.653 739.529 677.999C737.632 676.443 735.702 674.935 733.805 673.411C731.941 671.968 730.076 670.509 728.228 669.098C726.234 667.542 724.223 666.034 722.197 664.542C719.684 662.678 717.089 660.813 714.544 658.997C713.231 658.073 711.917 657.165 710.62 656.273C709.518 655.479 708.35 654.684 707.248 653.922C705.497 652.722 703.729 651.539 701.946 650.372C699.838 648.993 697.698 647.615 695.574 646.237L695.542 646.205C691.569 643.692 687.613 641.243 683.576 638.828C681.582 637.66 679.539 636.477 677.545 635.309C675.518 634.142 673.475 633.007 671.481 631.888C669.406 630.753 667.379 629.651 665.352 628.548C663.326 627.446 661.25 626.408 659.175 625.338C657.651 624.576 656.143 623.781 654.619 623.036C653.922 622.695 653.208 622.306 652.479 621.998C650.582 621.025 648.685 620.133 646.755 619.242C644.648 618.236 642.588 617.28 640.481 616.307C636.281 614.41 632.066 612.578 627.834 610.827C625.937 610.032 624.008 609.27 622.143 608.525C621.689 608.346 621.284 608.184 620.862 608.006C619.03 607.276 617.247 606.628 615.447 605.898C615.026 605.752 614.62 605.622 614.199 605.444C608.021 603.093 601.795 600.92 595.521 598.926C593.348 598.197 591.143 597.548 588.971 596.851H588.906C586.701 596.154 584.528 595.505 582.323 594.889C578.286 593.722 574.184 592.619 570.114 591.549C569.531 591.403 568.947 591.273 568.363 591.095C566.839 590.722 565.299 590.333 563.742 589.993C562.98 589.782 562.218 589.62 561.44 589.441C559.511 588.955 557.549 588.517 555.587 588.096C550.966 587.058 546.345 586.134 541.66 585.274C540.071 584.966 538.482 584.691 536.909 584.415C534.834 584.042 532.742 583.686 530.635 583.377C524.911 582.405 519.123 581.626 513.286 580.897C510.254 580.524 507.19 580.2 504.109 579.859C501.077 579.551 498.013 579.275 494.932 579.032C491.836 578.789 488.723 578.546 485.658 578.335L597.288 290.951L740.015 660.213L749.046 683.625L750.295 686.9C748.819 685.587 747.328 684.323 745.771 683.074L745.722 683.09Z" fill="#680070"/>
<path d="M1444.93 443.99L1402.55 547.367C1437 554.258 1465.26 566.678 1487.33 584.593C1509.38 602.509 1523.66 622.16 1530.24 643.513C1536.76 664.883 1538.66 685.895 1535.93 706.567C1533.16 727.24 1526.27 744.815 1515.25 759.31C1499.39 779.301 1482.01 791.348 1463.05 795.482C1444.09 799.616 1426.51 797.703 1410.31 789.791C1394.12 781.879 1378.44 769.622 1363.29 753.084C1343.98 732.412 1329.68 709.145 1320.38 683.301C1311.07 657.473 1305.54 634.385 1303.84 614.037C1302.1 593.738 1295.72 571.152 1284.71 546.346C1273.65 521.539 1257.13 499.813 1235.06 481.216C1213.71 463.3 1189.92 450.881 1163.75 443.99L1121.37 547.367C1151.68 553.577 1177.54 564.602 1198.89 580.459C1220.24 596.316 1235.06 614.232 1243.35 634.223C1251.63 654.214 1256.11 674.011 1256.79 693.661C1257.47 713.312 1252.99 731.228 1243.35 747.425C1233.68 763.623 1220.24 775.167 1203.02 782.057C1179.61 790.31 1158.57 793.423 1139.97 791.364C1121.37 789.288 1105.34 781.717 1091.9 768.633C1078.46 755.532 1067.09 740.032 1057.78 722.1C1048.48 704.184 1040.89 683.171 1035.05 659.046C1029.18 634.92 1024.85 610.973 1022.11 587.188C1019.36 563.419 1017.82 539.115 1017.48 514.308C1017.1 489.501 1017.3 467.289 1018 447.638C1018.68 427.988 1020.07 410.591 1022.11 395.431H919.79C912.186 425.085 907.209 459.004 904.809 497.251C902.377 535.499 903.917 576.86 909.446 621.317C914.975 665.742 924.962 706.243 939.441 742.772C953.903 779.317 976.797 809.815 1008.19 834.281C1039.54 858.747 1077.27 870.956 1121.39 870.956C1151.69 870.956 1180.31 862.703 1207.19 846.149C1234.07 829.611 1256.12 807.561 1273.36 779.998C1298.83 840.653 1341.91 870.956 1402.56 870.956C1453.57 870.956 1497.69 849.44 1534.88 806.361C1572.11 763.298 1590.7 713.831 1590.7 658.008C1590.7 602.185 1577.08 557.063 1549.86 518.459C1522.64 479.871 1487.67 455.064 1444.94 444.039L1444.93 443.99Z" fill="#680070"/>
<path d="M2003.68 502.618C1961.96 460.901 1911.67 440.083 1852.75 440.083C1793.83 440.083 1743.69 460.901 1702.33 502.618C1661.01 544.303 1640.32 594.419 1640.32 653.03C1640.32 707.427 1658.25 754.835 1694.06 795.142C1729.88 835.481 1774.35 858.747 1827.42 864.957V960H1879.13V864.957C1932.18 858.747 1976.65 835.481 2012.48 795.142C2048.3 754.835 2066.23 707.443 2066.23 653.03C2066.23 594.419 2045.41 544.303 2003.69 502.618H2003.68ZM1847.57 798.206C1819.62 807.934 1794.44 806.378 1772.1 793.618C1745.56 778.442 1730.93 751.738 1728.18 713.491C1726.8 694.213 1728.6 674.886 1733.59 655.463V655.43C1738.52 636.395 1746.52 617.328 1757.65 598.197C1780.03 559.592 1808.43 531.867 1842.9 514.973C1844.49 514.211 1846 513.497 1847.52 512.768H1847.56C1880.1 498.046 1909.06 498.143 1934.4 512.946C1960.91 528.43 1975.56 555.312 1978.35 593.543C1979.79 614.118 1977.62 634.774 1971.83 655.463V655.495C1966.87 673.249 1959.22 691.002 1948.88 708.821C1926.47 747.393 1898.06 774.972 1863.58 791.526C1858.13 794.153 1852.83 796.325 1847.57 798.173H1847.54L1847.57 798.206Z" fill="#680070"/>
<path d="M1956.82 317.039C1956.61 316.617 1956.17 316.763 1955.44 317.493C1954.58 317.914 1954.34 317.947 1954.68 317.59C1955.05 317.25 1954.83 317.071 1953.98 317.039C1952.33 317.006 1952.85 316.488 1955.57 315.482C1956.58 315.304 1956.85 314.963 1956.4 314.38C1955.94 313.796 1955.91 313.31 1956.25 312.969C1956.9 313.18 1956.84 312.937 1956.07 312.24C1955.28 311.542 1955.21 311.315 1955.86 311.51C1956.51 311.688 1956.56 311.234 1955.96 310.164C1954.92 308.754 1954.48 308.267 1954.58 308.754C1954.73 309.24 1954.37 309.483 1953.54 309.483C1952.93 309.273 1952.72 309.062 1952.99 308.786C1953.24 308.543 1953.06 308.3 1952.41 308.138C1951.31 307.586 1951.27 307.213 1952.23 307.067C1953.27 306.889 1952.26 306.614 1949.33 306.208C1947.37 306.111 1946.3 306.111 1946.12 306.273C1946.05 306.727 1945.7 306.792 1944.98 306.451C1944.25 306.143 1943.54 305.689 1942.84 305.171C1942.15 304.619 1941.47 304.246 1940.82 304.068C1940.17 303.857 1939.93 304.133 1940.02 304.83C1939.88 306.581 1939.02 307.035 1937.44 306.111C1936.99 305.77 1936.55 305.689 1936.1 305.9C1935.68 306.111 1935.73 306.387 1936.16 306.759C1936.78 306.938 1936.96 307.213 1936.59 307.554C1936.24 307.894 1935.94 307.797 1935.61 307.278C1935.64 306.824 1934.85 306.484 1933.23 306.241C1931.61 305.965 1931.12 305.722 1931.79 305.479C1932.16 305.138 1932 304.96 1931.33 304.992C1930.68 305.025 1930.02 305.057 1929.34 305.089C1928.69 305.089 1928.2 305.089 1927.89 304.992C1927.55 304.895 1927.83 304.652 1928.69 304.198C1929.73 303.614 1929.76 303.16 1928.79 302.884C1927.54 302.058 1926.4 301.604 1925.41 301.571C1924.44 301.506 1921.34 301.717 1916.2 302.22C1912.86 302.593 1910.45 302.803 1908.96 302.803C1907.48 302.836 1906.17 303.565 1905.07 305.041C1905.44 306.289 1905.1 306.97 1903.93 307.067C1902.76 307.165 1902 307.408 1901.63 307.765C1902.28 307.975 1902.33 308.348 1901.66 308.964C1901.05 309.548 1900.38 309.759 1899.76 309.581C1899.42 309.483 1899.12 309.613 1898.73 309.953C1898.82 310.651 1898.45 310.813 1897.59 310.472C1896.7 310.099 1896.25 310.326 1896.15 311.234C1894.8 311.721 1893.42 312.758 1892.08 314.266C1890.73 315.79 1889.32 317.331 1887.88 318.952C1886.44 320.541 1885.25 322.13 1884.3 323.638C1883.37 325.194 1882.92 326.297 1883.05 327.01C1882.04 328.729 1880.94 330.561 1879.63 332.425C1878.31 334.29 1876.69 336.187 1874.73 338.116C1872.93 339.835 1872.19 340.743 1872.53 340.84C1872.83 340.937 1872.98 341.424 1872.9 342.316C1872.66 342.899 1872.41 342.932 1872.14 342.413C1872.2 341.521 1871.72 341.618 1870.61 342.656C1869.88 343.791 1869.64 344.618 1869.92 345.169C1870.22 345.688 1869.49 346.58 1867.74 347.893C1866.3 349.271 1865.91 349.822 1866.61 349.579C1867.65 348.996 1867.68 349.271 1866.67 350.439C1865.67 351.606 1864.37 353.098 1862.7 354.881C1861.08 356.632 1859.49 358.367 1857.98 360.086C1856.43 361.772 1855.63 362.842 1855.6 363.296C1854.8 364.852 1853.18 366.749 1850.7 368.954C1848.22 371.159 1846.18 373.056 1844.57 374.613C1841.23 379.055 1839.09 381.131 1838.12 380.855C1837.99 380.579 1837.88 380.482 1837.78 380.579C1837.68 380.644 1837.72 380.823 1837.85 381.098C1838.46 381.714 1838.49 382.509 1837.91 383.514C1837.36 384.438 1836.63 384.925 1835.8 384.925C1835.01 384.892 1834.12 385.541 1833.18 386.854C1832.93 387.892 1832.84 388.605 1832.9 388.962C1832.93 389.302 1832.62 389.821 1831.89 390.551C1831.04 390.972 1830.86 391.248 1831.34 391.378C1831.83 391.523 1831.93 391.896 1831.72 392.512C1831.85 392.788 1831.81 392.934 1831.57 392.999C1831.29 393.031 1831.12 392.902 1830.99 392.658C1830.34 392.448 1829.92 392.561 1829.71 392.966C1829.5 393.339 1829.4 393.858 1829.33 394.523C1829.33 394.799 1829.3 395.074 1829.27 395.35C1829.27 395.771 1829.24 396.144 1829.2 396.517C1829.14 397.166 1829.03 397.587 1828.86 397.766C1828.07 399.355 1827.52 400.587 1827.21 401.527C1826.87 402.451 1826.66 403.181 1826.51 403.7C1826.41 404.219 1826.27 404.154 1826.17 403.424C1825.9 402.873 1825.59 402.808 1825.2 403.148C1825.17 403.602 1825.26 404.624 1825.44 406.245C1825.65 407.899 1825.75 408.937 1825.72 409.391C1825.65 410.25 1825.51 410.704 1825.38 410.639C1825.2 410.607 1825.07 410.396 1825.04 410.055C1824.97 409.683 1824.89 409.358 1824.73 409.131C1824.58 408.856 1824.31 409.099 1823.93 409.893C1824.03 410.623 1823.66 411.271 1822.8 411.92C1821.91 412.569 1822.1 413.087 1823.42 413.476C1824.39 413.752 1824.34 413.963 1823.35 414.125C1822.04 414.19 1821.55 414.952 1821.94 416.395C1822.31 417.87 1823.19 418.567 1824.49 418.503C1825.62 419.054 1826.66 419.086 1827.58 418.568C1828.55 418.049 1828.41 417.984 1827.24 418.292C1826.72 418.357 1826.17 418.324 1825.52 418.114C1825.9 417.773 1826.77 417.627 1828.15 417.741C1829.56 417.805 1829.84 418.049 1828.98 418.47L1828.43 418.989L1828.91 419.135C1829.56 419.346 1829.74 419.589 1829.37 419.962C1828.81 420.481 1829.54 420.383 1831.51 419.719C1833.44 419.07 1834.57 418.989 1834.85 419.508C1835.95 420.059 1837.12 419.962 1838.33 419.2C1839.58 418.405 1840.23 418.616 1840.29 419.751L1840.81 419.232C1842.26 417.854 1843.47 417.303 1844.43 417.578C1844.74 417.676 1845.25 417.368 1845.98 416.687L1847.33 415.406C1847.36 414.952 1847.48 414.644 1847.64 414.482C1848.19 413.963 1848.5 413.833 1848.68 414.109C1849.13 414.449 1848.98 414.692 1848.22 414.838C1847.46 414.936 1847.39 415.114 1848.09 415.292C1848.71 415.503 1849.5 415.26 1850.36 414.595C1851.22 413.93 1851.8 413.898 1852.08 414.449C1852.57 414.79 1852.73 414.822 1852.6 414.595C1852.11 414.222 1852.66 413.347 1854.25 412.05C1855.87 410.704 1856.33 409.942 1855.7 409.747C1855.05 409.569 1854.9 409.293 1855.24 408.953C1855.62 408.612 1855.94 408.58 1856.25 408.92C1856.56 409.196 1856.83 409.066 1857.04 408.434L1857.84 407.672C1858.11 408.191 1858.6 408.256 1859.18 407.883C1859.77 407.51 1859.67 407.299 1858.84 407.299C1857.92 406.57 1858.23 405.986 1859.73 405.548C1861.26 405.062 1862.15 404.543 1862.36 403.927C1862.21 403.197 1862.67 403.003 1863.64 403.278C1865.2 402.63 1866.33 401.689 1867.09 400.587C1867.82 399.452 1869.51 398.009 1872.12 396.306C1872.49 395.998 1872.88 395.69 1873.22 395.415C1875.09 393.891 1876.37 392.788 1877.02 392.14C1877.84 391.378 1878.27 390.761 1878.3 390.307C1878.23 389.172 1878.51 388.897 1879.09 389.545C1879.55 390.34 1879.79 390.307 1879.85 389.399C1880.06 388.783 1880.55 388.427 1881.3 388.297C1882.06 388.2 1882.95 387.6 1884.05 386.578C1884.95 385.719 1885.71 385.103 1886.29 384.714C1886.87 384.292 1887.3 384.017 1887.46 383.854C1887.64 384.13 1888.04 383.919 1888.77 383.238L1893.85 378.309C1894.58 377.612 1894.98 377.385 1895.16 377.661C1895.44 378.212 1895.78 378.358 1896.23 378.147C1896.65 377.937 1897.12 377.564 1897.67 377.045C1898.22 376.526 1898.71 375.942 1899.2 375.294C1899.65 374.645 1900.12 374.289 1900.64 374.224C1901.47 373.77 1902.67 372.943 1904.16 371.711C1905.68 370.43 1907.06 369.197 1908.29 367.981L1911.63 364.739C1912.64 363.766 1912.88 363.361 1912.36 363.425C1912.05 363.328 1912.22 363.15 1912.91 362.907C1913.09 362.728 1913.89 362.177 1915.26 361.22C1916.68 360.296 1918.12 359.291 1919.61 358.253C1921.09 357.216 1922.33 356.259 1923.31 355.286C1924.31 354.314 1924.55 353.665 1924.1 353.324C1923.1 353.47 1923.27 353.292 1924.62 352.806C1927.99 349.952 1930.38 348.055 1931.75 347.115C1933.16 346.142 1934.44 345.12 1935.61 344.018C1936.75 342.883 1938.34 341.262 1940.3 339.122C1942.29 336.981 1945.37 333.495 1949.57 328.648C1951.37 326.929 1952.09 325.275 1951.81 323.719C1951.53 322.162 1952.3 321.092 1954.16 320.508C1954.47 320.606 1954.89 320.444 1955.33 320.022C1955.78 319.568 1956.15 319.049 1956.53 318.498C1956.95 317.947 1957.01 317.46 1956.77 317.055L1956.82 317.039ZM1833.19 416.33C1833.16 416.784 1832.54 416.752 1831.33 416.298C1830.13 415.811 1829.85 415.925 1830.44 416.541C1831.05 417.157 1830.95 417.465 1830.13 417.465C1829.3 417.433 1828.81 417.287 1828.68 417.043C1827.79 415.876 1828.44 415.211 1830.68 415.082C1832.92 414.936 1833.74 415.357 1833.19 416.33ZM1834.85 419.021C1833.65 418.535 1833.47 417.887 1834.36 417.027C1835.43 415.99 1835.74 416.022 1835.22 417.092C1834.73 418.195 1834.88 418.746 1835.7 418.778C1836.32 419.394 1836.01 419.475 1834.85 419.021ZM1837.6 416.946C1837.26 417.287 1836.87 417.53 1836.56 417.676C1836.22 417.773 1836.11 417.741 1836.29 417.578C1836.01 417.06 1836.53 416.654 1837.88 416.379C1839.22 416.103 1839.16 416.281 1837.6 416.962V416.946ZM1835.85 385.638C1836.03 385.46 1836.4 385.395 1836.99 385.46C1837.54 385.492 1837.68 385.703 1837.29 386.043C1836.81 386.108 1836.37 386.108 1836.05 386.011C1835.74 385.946 1835.67 385.8 1835.83 385.638H1835.85ZM1886.11 324.724C1885.93 325.697 1885.84 326.378 1885.8 326.832C1885.38 328.08 1885.19 328.177 1885.16 327.172C1885.16 326.135 1885.37 325.454 1885.71 325.097C1886.13 323.897 1886.26 323.751 1886.13 324.724H1886.11ZM1887.36 322.892C1886.36 323.038 1886.19 322.827 1886.81 322.195C1887.43 321.611 1887.81 321.433 1887.94 321.708C1888.12 321.951 1887.91 322.357 1887.36 322.876V322.892ZM1891.4 322.033C1891.06 322.373 1890.6 322.486 1890.12 322.341C1889.63 322.195 1889.6 321.968 1889.94 321.611C1890.28 321.27 1890.7 321.157 1891.19 321.303C1891.71 321.449 1891.77 321.676 1891.4 322.033ZM1909.61 364.95C1909.05 365.468 1908.78 365.809 1908.78 366.052C1908.75 366.263 1908.81 366.393 1908.99 366.474C1909.17 366.506 1909.27 366.571 1909.33 366.717C1909.4 366.863 1908.91 367.236 1907.89 367.819C1907.03 368.273 1906.75 367.722 1907.03 366.23C1908.03 364.025 1908.99 363.053 1910 363.377C1910.61 363.555 1910.51 364.074 1909.62 364.966L1909.61 364.95ZM1918.09 357.945L1917.02 358.983C1916.01 359.161 1916.01 358.918 1917.05 358.334C1918.09 357.718 1918.43 357.605 1918.09 357.962V357.945ZM1923.57 354.151C1923.01 354.881 1922.5 355.286 1921.98 355.351C1920.36 355.319 1920.39 354.897 1922.07 354.038C1923.63 353.341 1924.1 353.389 1923.55 354.135L1923.57 354.151ZM1932.01 344.423C1931.67 344.764 1931.53 344.796 1931.64 344.488C1931.79 344.18 1931.98 343.84 1932.37 343.483C1932.71 343.142 1933.13 342.867 1933.54 342.656C1933.94 342.445 1934.02 342.51 1933.63 342.867C1933.91 343.386 1933.39 343.904 1932.01 344.423ZM1951.39 322.016C1951.18 322.632 1950.93 322.6 1950.77 321.984C1950.56 321.368 1950.77 321.157 1951.42 321.368C1951.76 321.433 1951.73 321.676 1951.39 322.016ZM1953.32 319.536C1952.43 320.395 1951.87 320.508 1951.66 319.876C1951.45 319.26 1951.87 318.871 1952.86 318.741C1954.58 317.882 1954.73 318.125 1953.32 319.536Z" fill="#680070"/>
<path d="M650.111 112.571C649.074 112.392 649.074 112.198 650.047 111.922C651.36 111.549 651.571 111.03 650.663 110.366C649.803 109.717 649.414 109.052 649.528 108.339C649.106 107.545 648.879 107.301 648.701 107.577C648.555 107.82 648.49 108.128 648.425 108.501C648.36 108.842 648.247 109.052 648.085 109.085C647.939 109.15 647.809 108.712 647.744 107.836C647.712 107.382 647.809 106.361 648.02 104.74C648.198 103.086 648.295 102.048 648.263 101.594C647.89 101.254 647.566 101.319 647.29 101.87C647.193 102.599 647.047 102.664 646.95 102.145C646.804 101.627 646.609 100.897 646.253 99.9729C645.945 99.0487 645.393 97.8003 644.599 96.2114C644.42 96.033 644.323 95.6277 644.258 94.9629C644.226 94.3144 644.161 93.6496 644.129 93.0011C644.064 92.3039 643.95 91.8013 643.756 91.4122C643.545 90.9906 643.14 90.8933 642.475 91.1041C642.329 91.3473 642.167 91.477 641.891 91.4446C641.648 91.3797 641.583 91.2338 641.713 90.9582C641.502 90.3745 641.648 89.9854 642.134 89.8232C642.621 89.6773 642.442 89.4017 641.583 88.9964C640.854 88.2992 640.545 87.7479 640.578 87.4074C640.643 87.067 640.545 86.3374 640.302 85.2997C639.378 83.9864 638.47 83.3379 637.643 83.3703C636.849 83.3703 636.119 82.8839 635.568 81.9597C634.984 80.9869 635.017 80.2087 635.6 79.5439C635.779 79.2683 635.779 79.0899 635.698 79.0251C635.6 78.9278 635.487 79.0251 635.357 79.3007C634.384 79.5763 632.212 77.501 628.904 73.0585C627.283 71.502 625.256 69.605 622.775 67.4C620.295 65.195 618.641 63.298 617.879 61.7415C617.847 61.2875 617.052 60.2174 615.496 58.5312C613.972 56.845 612.399 55.0778 610.778 53.3267C609.124 51.527 607.81 50.0516 606.805 48.8842C605.8 47.7169 605.8 47.4412 606.87 48.0249C607.567 48.3006 607.178 47.7169 605.735 46.3387C603.984 45.0579 603.254 44.1337 603.53 43.6149C603.806 43.0636 603.595 42.2367 602.833 41.1018C601.763 40.0641 601.244 39.9993 601.357 40.8586C601.049 41.4098 600.806 41.345 600.595 40.7613C600.531 39.8695 600.628 39.3831 600.968 39.2859C601.276 39.1886 600.547 38.2806 598.763 36.562C596.802 34.6326 595.18 32.7356 593.867 30.8711C592.554 29.0065 591.419 27.1744 590.446 25.4558C590.592 24.7262 590.138 23.6237 589.197 22.0834C588.225 20.5593 587.057 19.019 585.614 17.3977C584.171 15.8088 582.761 14.2198 581.415 12.712C580.069 11.1879 578.659 10.1989 577.313 9.68007C577.248 8.78833 576.762 8.54513 575.902 8.91804C575.011 9.25852 574.654 9.12881 574.767 8.39921C574.395 8.05873 574.038 7.9128 573.73 8.0263C573.081 8.23707 572.449 7.99387 571.833 7.41019C571.184 6.79408 571.217 6.40495 571.865 6.21039C571.492 5.86991 570.73 5.65913 569.563 5.51321C568.395 5.41593 568.039 4.71875 568.428 3.51896C567.325 1.99489 566.012 1.2815 564.537 1.2815C563.061 1.24907 560.645 1.03829 557.289 0.665385C552.15 0.146554 549.053 -0.0642215 548.08 0.0168458C547.075 0.0816997 545.94 0.50325 544.708 1.33014C543.735 1.60577 543.783 2.05974 544.805 2.67585C545.664 3.0974 545.94 3.32439 545.599 3.43789C545.291 3.53517 544.772 3.58381 544.124 3.53517C543.475 3.50274 542.811 3.47031 542.162 3.43789C541.465 3.40546 541.335 3.58381 541.676 3.92429C542.373 4.16749 541.887 4.4107 540.265 4.68632C538.644 4.92953 537.817 5.27001 537.849 5.72399C537.574 6.24282 537.266 6.3401 536.877 5.99962C536.536 5.65913 536.666 5.3835 537.331 5.20516C537.785 4.83225 537.817 4.55662 537.395 4.34584C536.941 4.13507 536.504 4.19992 536.05 4.55662C534.461 5.48078 533.569 5.07545 533.472 3.27575C533.569 2.57857 533.293 2.30294 532.645 2.51372C532.029 2.69207 531.332 3.06498 530.651 3.61624C529.921 4.16749 529.24 4.58904 528.51 4.8971C527.781 5.23758 527.44 5.17273 527.375 4.71875C527.197 4.5404 526.127 4.5404 524.165 4.6539C521.198 5.07545 520.242 5.35108 521.231 5.51321C522.236 5.69156 522.203 6.03204 521.101 6.5833C520.452 6.76165 520.241 7.00485 520.517 7.23184C520.793 7.50747 520.582 7.75067 519.966 7.92902C519.139 7.92902 518.798 7.71824 518.896 7.19941C519.042 6.71301 518.588 7.19941 517.518 8.64241C516.966 9.68007 516.999 10.1178 517.615 9.9557C518.312 9.74493 518.231 9.98813 517.437 10.6853C516.675 11.3825 516.61 11.6095 517.226 11.4149C517.599 11.7554 517.534 12.2418 517.08 12.8255C516.658 13.4092 516.902 13.7497 517.907 13.928C520.663 14.9332 521.182 15.4521 519.528 15.4845C518.701 15.5169 518.458 15.6953 518.831 16.0358C519.171 16.3762 518.928 16.3438 518.069 15.9385C517.339 15.2089 516.902 15.0792 516.658 15.4845C516.448 15.906 516.529 16.3762 516.902 16.9275C517.274 17.5112 517.696 17.9976 518.15 18.4516C518.604 18.8731 519.009 19.0352 519.317 18.938C521.182 19.5216 521.944 20.5917 521.668 22.1482C521.36 23.7047 522.122 25.3585 523.906 27.0771C528.105 31.9412 531.186 35.4595 533.147 37.551C535.142 39.6912 536.698 41.3125 537.866 42.4475C539.033 43.55 540.314 44.6201 541.724 45.5443C543.103 46.4684 545.486 48.3654 548.858 51.2352C550.204 51.7216 550.382 51.9324 549.377 51.754C548.923 52.0945 549.166 52.7917 550.172 53.7159C551.144 54.6887 552.377 55.6453 553.868 56.7153C555.344 57.7206 556.803 58.7096 558.181 59.6824C559.592 60.6066 560.386 61.1578 560.564 61.3362C561.262 61.5794 561.424 61.7577 561.083 61.855C560.597 61.7902 560.84 62.2279 561.813 63.1683L565.185 66.411C566.434 67.6108 567.812 68.8592 569.32 70.1401C570.795 71.3885 572.011 72.2154 572.838 72.6532C573.357 72.718 573.843 73.0747 574.281 73.7233C574.767 74.3718 575.254 74.9717 575.805 75.523C576.324 76.0418 576.843 76.3823 577.248 76.5931C577.702 76.8038 578.043 76.6579 578.318 76.1066C578.464 75.831 578.902 76.0742 579.631 76.7552L584.706 81.6841C585.436 82.3813 585.841 82.5758 586.02 82.3002C586.198 82.4785 586.571 82.7542 587.187 83.1595C587.771 83.5324 588.533 84.1647 589.424 85.0241C590.494 86.0617 591.419 86.6454 592.181 86.7751C592.943 86.8724 593.429 87.2615 593.624 87.8452C593.689 88.7369 593.932 88.7694 594.386 87.9911C594.969 87.3426 595.245 87.6182 595.18 88.7532C595.213 89.2071 595.634 89.8232 596.429 90.6177C597.255 91.3797 598.877 92.7579 601.357 94.7521C603.984 96.4383 605.67 97.8976 606.384 99.0325C607.146 100.167 608.281 101.059 609.837 101.756C610.81 101.448 611.248 101.659 611.118 102.372C611.329 102.989 612.22 103.507 613.745 103.994C615.269 104.448 615.544 105.031 614.604 105.745C613.809 105.745 613.68 105.956 614.296 106.361C614.88 106.734 615.366 106.637 615.642 106.118L616.436 106.912C616.647 107.496 616.922 107.674 617.23 107.366C617.539 107.026 617.847 107.058 618.236 107.399C618.576 107.739 618.447 108.015 617.782 108.193C617.166 108.404 617.603 109.166 619.192 110.495C620.814 111.809 621.365 112.668 620.879 113.041C620.733 113.284 620.911 113.252 621.365 112.895C621.641 112.344 622.257 112.409 623.116 113.041C623.975 113.689 624.77 113.933 625.386 113.738C626.034 113.56 625.97 113.398 625.24 113.284C624.478 113.138 624.348 112.911 624.786 112.555C624.964 112.279 625.272 112.409 625.824 112.927C626.002 113.106 626.099 113.414 626.132 113.852L627.477 115.132C628.207 115.83 628.726 116.138 629.034 116.024C630.007 115.749 631.206 116.3 632.649 117.678L633.168 118.197C633.233 117.062 633.898 116.851 635.098 117.646C636.346 118.408 637.514 118.505 638.616 117.954C638.892 117.435 640.027 117.5 641.956 118.164C643.918 118.813 644.615 118.926 644.096 118.408C643.723 118.067 643.885 117.791 644.502 117.581L644.988 117.435L644.469 116.916C643.61 116.494 643.885 116.267 645.264 116.186C646.674 116.121 647.533 116.219 647.923 116.608C647.274 116.786 646.674 116.819 646.204 116.754C645.037 116.446 644.891 116.511 645.863 117.029C646.788 117.548 647.825 117.516 648.928 116.997C650.274 117.029 651.133 116.348 651.506 114.889C651.879 113.414 651.408 112.652 650.095 112.587L650.111 112.571ZM520.242 17.9814C518.831 16.6032 518.961 16.3276 520.695 17.1869C521.701 17.3328 522.106 17.7057 521.895 18.3543C521.685 18.938 521.133 18.8407 520.242 17.9814ZM522.171 20.462C521.83 20.1215 521.798 19.9108 522.138 19.8135C522.787 19.6027 522.998 19.8135 522.787 20.462C522.576 21.0457 522.365 21.0781 522.171 20.462ZM541.546 42.869C540.168 42.3502 539.649 41.8314 539.925 41.3125C539.552 40.9721 539.617 40.891 540.022 41.1018C540.427 41.3125 540.849 41.5882 541.189 41.9287C541.562 42.2691 541.773 42.6258 541.887 42.9339C542.032 43.242 541.886 43.2095 541.546 42.869ZM551.55 53.7969C551.063 53.7321 550.545 53.3105 549.993 52.5971C549.442 51.8351 549.928 51.8027 551.436 52.4998C553.155 53.3592 553.187 53.7807 551.533 53.8131L551.55 53.7969ZM556.543 57.4125L555.473 56.3749C555.133 56.0344 555.473 56.1317 556.511 56.7478C557.549 57.3315 557.549 57.5747 556.543 57.3963V57.4125ZM565.688 66.2326C564.618 65.649 564.164 65.2598 564.245 65.1626C564.277 64.9842 564.423 64.9194 564.585 64.8869C564.731 64.8221 564.829 64.6762 564.796 64.4654C564.796 64.2222 564.521 63.8817 563.969 63.3629C563.078 62.4711 562.964 61.9523 563.596 61.7739C564.569 61.4983 565.558 62.4225 566.563 64.6275C566.839 66.1029 566.563 66.6542 565.704 66.2164L565.688 66.2326ZM583.442 20.7539C582.923 20.9322 582.517 20.7863 582.161 20.4782C581.788 20.1053 581.853 19.8621 582.339 19.7162C582.825 19.5703 583.231 19.6838 583.62 20.0243C583.96 20.3647 583.928 20.608 583.442 20.7539ZM586.198 21.3051C585.647 20.7863 585.436 20.4134 585.614 20.1378C585.76 19.8621 586.133 20.0405 586.749 20.6566C587.365 21.2403 587.203 21.4835 586.198 21.3051ZM587.754 25.2774C587.722 24.8235 587.608 24.1101 587.446 23.1373C587.317 22.1644 587.414 22.3104 587.868 23.5588C588.208 23.8993 588.419 24.564 588.387 25.5855C588.387 26.5907 588.176 26.4772 587.771 25.2774H587.754ZM636.978 116.089C636.67 115.943 636.281 115.716 635.941 115.359C634.384 114.662 634.319 114.5 635.633 114.776C637.011 115.051 637.53 115.473 637.222 116.024C637.4 116.17 637.319 116.203 636.978 116.089ZM636.249 84.4728C635.876 84.1323 635.973 83.9215 636.557 83.8891C637.141 83.8243 637.53 83.8891 637.692 84.0675C637.87 84.2458 637.789 84.3755 637.481 84.489C637.173 84.5539 636.719 84.5539 636.233 84.489L636.249 84.4728ZM638.697 117.435C637.53 117.889 637.222 117.808 637.805 117.192C638.665 117.159 638.811 116.608 638.324 115.538C637.805 114.435 638.081 114.403 639.183 115.441C640.043 116.3 639.913 116.965 638.697 117.435ZM644.874 115.473C644.696 115.716 644.258 115.846 643.431 115.895C642.605 115.895 642.507 115.619 643.123 114.97C643.707 114.354 643.431 114.241 642.232 114.727C641.032 115.181 640.4 115.214 640.367 114.76C639.783 113.787 640.643 113.381 642.88 113.511C645.085 113.657 645.782 114.306 644.874 115.473Z" fill="#680070"/>
<path d="M739.512 677.999C737.615 676.443 735.686 674.935 733.789 673.411C731.925 671.968 730.06 670.509 728.212 669.098C726.217 667.542 724.207 666.034 722.18 664.542C719.667 662.678 717.073 660.813 714.527 658.997C713.214 658.073 711.901 657.165 710.604 656.273C709.501 655.479 708.334 654.684 707.231 653.922C705.48 652.723 703.713 651.539 701.93 650.372C699.822 648.993 697.682 647.615 695.558 646.237L695.525 646.205L452.923 569.564C452.923 569.564 444.103 576.908 428.473 584.35C403.553 596.348 361.495 608.719 310.909 592.376C276.748 581.302 245.537 563.873 212.477 550.172C199.717 544.935 185.482 539.617 171.765 537.996C151.466 535.645 127.989 542.471 108.744 548.194C89.3686 553.982 69.7179 559.463 51.5426 568.607C37.5504 575.644 25.9578 586.085 16.1 598.18C11.4791 603.839 6.8583 609.724 2.90221 615.869C2.14018 617.037 0 619.452 0 620.944C0 624.738 1.28086 623.36 4.71812 621.771C15.7109 616.631 25.747 606.093 34.8914 598.359C50.6833 584.95 72.6688 571.266 90.4712 588.809C103.296 601.423 109.23 618.901 122.25 631.45C134.766 643.481 150.931 651.96 168.344 653.485C191.481 655.56 220.049 646.594 238.37 632.31C249.752 623.409 257.048 614.41 271.673 610.665C284.563 607.357 306.321 604.601 318.773 610.908C322.016 612.594 324.496 615.432 327.463 617.604C332.571 621.333 338.764 622.906 345.12 623.392C347.844 623.603 350.665 623.603 353.389 623.457C372.391 622.484 394.49 618.707 414.06 621.382C416.994 621.755 419.848 622.274 422.604 623.003C424.906 623.587 440.666 626.586 465.148 631.175L466.007 629.002C513.108 630.251 558.084 639.379 601.049 656.403C648.49 665.158 699.368 674.497 745.641 682.977C743.647 681.291 741.604 679.604 739.545 677.951L739.512 677.999ZM231.447 608.33C230.199 615.529 225.627 621.884 219.903 626.424C207.354 636.428 190.8 639.833 175.122 638.73C170.922 638.422 166.707 637.839 162.67 636.979C155.293 635.423 147.98 633.088 141.706 628.954C131.232 622.03 125.881 610.438 125.735 598.034C125.492 573.147 141.657 551.761 167.242 551.08C193.508 550.351 219.06 565.186 228.853 590.139C231.091 595.894 232.469 602.201 231.431 608.346L231.447 608.33ZM865.41 699.887L739.95 660.246L748.981 683.658C796.665 692.413 839.209 700.212 867.534 705.384L865.394 699.904L865.41 699.887Z" fill="#680070"/>
<path d="M318.011 475.072C311.704 425.458 299.917 400.117 260.956 388.946C242.31 383.644 221.038 386.562 205.246 398.122C185.223 412.747 181.007 436.224 184.153 459.588C186.455 477.001 189.876 494.366 188.53 512.022C188.125 517.259 187.833 525.122 184.396 529.565C184.396 529.565 201.323 536.456 202.425 536.877C201.29 536.18 203.155 529.322 203.706 528.462C204.873 526.387 206.495 525.155 208.392 524.36C209.916 523.777 211.569 523.469 213.288 523.258C235.873 520.502 259.043 516.805 281.79 518.67C309.239 522.155 335.262 538.418 358.739 552.183C369.845 558.668 380.692 565.429 391.458 572.417C392.658 573.212 403.148 581.626 404.38 581.075L426.69 570.731C426.69 570.731 324.302 524.701 318.027 475.055L318.011 475.072ZM296.836 482.238C294.291 487.864 290.416 493.068 285.179 496.344C281.206 498.824 276.634 500.105 272.013 500.9C244.613 505.585 212.964 493.587 202.166 466.673C200.788 463.219 199.75 459.571 199.101 455.81C195.972 437.408 201.89 416.817 218.266 406.829C231.82 398.528 249.087 397.377 263.599 403.862C276.002 409.375 285.908 419.654 292.491 431.506C301.003 446.876 304.035 466.187 296.836 482.254V482.238Z" fill="#680070"/>
</g>
<defs>
<clipPath id="clip0_103_96">
<rect width="3267" height="960" fill="white"/>
</clipPath>
</defs>
</svg>
